{
  "accessors": [
    {
      "bufferView": 2,
      "componentType": 5126,
      "count": 20132,
      "max": [
        2.4390480518341064,
        2.4457709789276123,
        0.26770758628845215
      ],
      "min": [
        -2.4405350685119629,
        -2.4457359313964844,
        -0.26772388815879822
      ],
      "type": "VEC3"
    },
    {
      "bufferView": 2,
      "byteOffset": 241584,
      "componentType": 5126,
      "count": 20132,
      "max": [
        0.9999992847442627,
        1,
        1
      ],
      "min": [
        -0.99999970197677612,
        -1,
        -1
      ],
      "type": "VEC3"
    },
    {
      "bufferView": 1,
      "componentType": 5126,
      "count": 20132,
      "max": [
        0.97625547647476196,
        0.97815561294555664
      ],
      "min": [
        0.026461120694875717,
        0.023017579689621925
      ],
      "type": "VEC2"
    },
    {
      "bufferView": 0,
      "componentType": 5125,
      "count": 117888,
      "max": [
        20131
      ],
      "min": [
        0
      ],
      "type": "SCALAR"
    },
    {
      "bufferView": 2,
      "byteOffset": 483168,
      "componentType": 5126,
      "count": 20132,
      "max": [
        2.4390480518341064,
        2.4457709789276123,
        0.26770758628845215
      ],
      "min": [
        -2.4405350685119629,
        -2.4457359313964844,
        -0.26772388815879822
      ],
      "type": "VEC3"
    },
    {
      "bufferView": 2,
      "byteOffset": 724752,
      "componentType": 5126,
      "count": 20132,
      "max": [
        0.9999992847442627,
        1,
        1
      ],
      "min": [
        -0.99999970197677612,
        -1,
        -1
      ],
      "type": "VEC3"
    },
    {
      "bufferView": 1,
      "byteOffset": 161056,
      "componentType": 5126,
      "count": 20132,
      "max": [
        0.97625547647476196,
        0.97815561294555664
      ],
      "min": [
        0.026461120694875717,
        0.023017579689621925
      ],
      "type": "VEC2"
    },
    {
      "bufferView": 0,
      "byteOffset": 471552,
      "componentType": 5125,
      "count": 117888,
      "max": [
        20131
      ],
      "min": [
        0
      ],
      "type": "SCALAR"
    },
    {
      "bufferView": 2,
      "byteOffset": 966336,
      "componentType": 5126,
      "count": 20132,
      "max": [
        2.4390480518341064,
        2.4457709789276123,
        0.26770758628845215
      ],
      "min": [
        -2.4405350685119629,
        -2.4457359313964844,
        -0.26772388815879822
      ],
      "type": "VEC3"
    },
    {
      "bufferView": 2,
      "byteOffset": 1207920,
      "componentType": 5126,
      "count": 20132,
      "max": [
        0.9999992847442627,
        1,
        1
      ],
      "min": [
        -0.99999970197677612,
        -1,
        -1
      ],
      "type": "VEC3"
    },
    {
      "bufferView": 1,
      "byteOffset": 322112,
      "componentType": 5126,
      "count": 20132,
      "max": [
        0.97625547647476196,
        0.97815561294555664
      ],
      "min": [
        0.026461120694875717,
        0.023017579689621925
      ],
      "type": "VEC2"
    },
    {
      "bufferView": 0,
      "byteOffset": 943104,
      "componentType": 5125,
      "count": 117888,
      "max": [
        20131
      ],
      "min": [
        0
      ],
      "type": "SCALAR"
    }
  ],
  "asset": {
    "extras": {
      "author": "3Dee (https://sketchfab.com/mellydeeis)",
      "license": "CC-BY-4.0 (http://creativecommons.org/licenses/by/4.0/)",
      "source": "https://sketchfab.com/3d-models/ice-crystal-8f6b6b14959f4a48917bb7f5ec1e6846",
      "title": "Ice Crystal"
    },
    "generator": "Sketchfab-9.37.0",
    "version": "2.0"
  },
  "bufferViews": [
    {
      "buffer": 0,
      "byteLength": 1414656,
      "byteOffset": 0,
      "name": "floatBufferViews",
      "target": 34963
    },
    {
      "buffer": 0,
      "byteLength": 483168,
      "byteOffset": 1414656,
      "byteStride": 8,
      "name": "floatBufferViews",
      "target": 34962
    },
    {
      "buffer": 0,
      "byteLength": 1449504,
      "byteOffset": 1897824,
      "byteStride": 12,
      "name": "floatBufferViews",
      "target": 34962
    }
  ],
  "buffers": [
    {
      "byteLength": 3347328,
      "uri": "scene.bin"
    }
  ],
  "images": [
    {
      "uri": "textures/Material.001_baseColor.png"
    },
    {
      "uri": "textures/Material.002_metallicRoughness.png"
    },
    {
      "uri": "textures/Material.002_emissive.png"
    },
    {
      "uri": "textures/Material_metallicRoughness.png"
    }
  ],
  "materials": [
    {
      "alphaMode": "BLEND",
      "doubleSided": true,
      "name": "Material.001",
      "pbrMetallicRoughness": {
        "baseColorFactor": [
          1,
          1,
          1,
          0.25786163522012578
        ],
        "baseColorTexture": {
          "index": 0,
          "texCoord": 0
        },
        "metallicFactor": 0,
        "roughnessFactor": 0
      }
    },
    {
      "alphaMode": "BLEND",
      "doubleSided": true,
      "emissiveFactor": [
        0,
        0,
        0
      ],
      "emissiveTexture": {
        "index": 2,
        "texCoord": 0
      },
      "name": "Material.002",
      "pbrMetallicRoughness": {
        "baseColorFactor": [
          1,
          1,
          1,
          0.24528301886792453
        ],
        "baseColorTexture": {
          "index": 0,
          "texCoord": 0
        },
        "metallicFactor": 0,
        "metallicRoughnessTexture": {
          "index": 1,
          "texCoord": 0
        },
        "roughnessFactor": 1
      }
    },
    {
      "alphaMode": "BLEND",
      "doubleSided": true,
      "name": "Material",
      "pbrMetallicRoughness": {
        "baseColorFactor": [
          1,
          1,
          1,
          0.3081761006289308
        ],
        "baseColorTexture": {
          "index": 0,
          "texCoord": 0
        },
        "metallicFactor": 0,
        "metallicRoughnessTexture": {
          "index": 3,
          "texCoord": 0
        },
        "roughnessFactor": 1
      }
    }
  ],
  "meshes": [
    {
      "name": "Material-material",
      "primitives": [
        {
          "attributes": {
            "NORMAL": 1,
            "POSITION": 0,
            "TEXCOORD_0": 2
          },
          "indices": 3,
          "material": 2,
          "mode": 4
        }
      ]
    },
    {
      "name": "Material_002-material",
      "primitives": [
        {
          "attributes": {
            "NORMAL": 5,
            "POSITION": 4,
            "TEXCOORD_0": 6
          },
          "indices": 7,
          "material": 1,
          "mode": 4
        }
      ]
    },
    {
      "name": "Material_001-material",
      "primitives": [
        {
          "attributes": {
            "NORMAL": 9,
            "POSITION": 8,
            "TEXCOORD_0": 10
          },
          "indices": 11,
          "material": 0,
          "mode": 4
        }
      ]
    }
  ],
  "nodes": [
    {
      "children": [
        1
      ],
      "name": "RootNode (gltf orientation matrix)",
      "rotation": [
        -0.70710678118654746,
        -0,
        -0,
        0.70710678118654757
      ]
    },
    {
      "children": [
        2
      ],
      "matrix": [
        7.7715611723760958e-16,
        1,
        -8.3266726846886741e-16,
        0,
        3.8857805861880479e-16,
        1.2212453270876722e-15,
        1,
        0,
        1,
        -3.8857805861880479e-16,
        0,
        0,
        -0.1819605827331543,
        -0.00041214190423488617,
        0.18207164108753204,
        1
      ],
      "name": "RootNode (model correction matrix)"
    },
    {
      "children": [
        3,
        5,
        7
      ],
      "name": "Collada visual scene group"
    },
    {
      "children": [
        4
      ],
      "matrix": [
        0.69747979999999998,
        0.40996830000000001,
        0.56427309999999997,
        0,
        -1.17497e-08,
        -0.79800249999999995,
        0.57978280000000004,
        0,
        0.69747979999999998,
        -0.40996830000000001,
        -0.56427309999999997,
        0,
        5.4934900000000002e-05,
        3.9778399999999998e-05,
        0.18231639999999999,
        1
      ],
      "name": "Plane"
    },
    {
      "mesh": 0,
      "name": "Material-material"
    },
    {
      "children": [
        6
      ],
      "matrix": [
        -0.70275120000000002,
        0.41306670000000001,
        0.56853770000000003,
        0,
        1.1867200000000001e-08,
        -0.80403360000000001,
        0.58416460000000003,
        0,
        0.70275120000000002,
        0.41306670000000001,
        0.56853770000000003,
        0,
        -4.3892700000000001e-05,
        4.6813400000000001e-05,
        0.18232590000000001,
        1
      ],
      "name": "Plane.001"
    },
    {
      "mesh": 1,
      "name": "Material_002-material"
    },
    {
      "children": [
        8
      ],
      "matrix": [
        -0.69265940000000004,
        0.40713500000000002,
        0.56037320000000002,
        0,
        0.69265940000000004,
        0.40713539999999998,
        0.56037289999999995,
        0,
        -3.7226000000000003e-07,
        0.79248730000000001,
        -0.57577610000000001,
        0,
        -6.1210299999999999e-05,
        2.7977400000000001e-05,
        0.18231639999999999,
        1
      ],
      "name": "Plane.002"
    },
    {
      "mesh": 2,
      "name": "Material_001-material"
    }
  ],
  "samplers": [
    {
      "magFilter": 9729,
      "minFilter": 9987,
      "wrapS": 10497,
      "wrapT": 10497
    }
  ],
  "scene": 0,
  "scenes": [
    {
      "name": "OSG_Scene",
      "nodes": [
        0
      ]
    }
  ],
  "textures": [
    {
      "sampler": 0,
      "source": 0
    },
    {
      "sampler": 0,
      "source": 1
    },
    {
      "sampler": 0,
      "source": 2
    },
    {
      "sampler": 0,
      "source": 3
    }
  ]
}

