<?xml version="1.0" encoding="UTF-8"?>
<!--
************* Copyright (c) 2017 Pareto Softare, LLC DBA Simplemaps.com *******************		
************* Free for Commercial Use, full terms at  http://simplemaps.com/resources/svg-license ************
************* Attribution is appreciated! http://simplemaps.com ***************************
-->
<svg width="1e3" height="701" fill="#7c7c7c" stroke="#ffffff" stroke-linecap="round" stroke-linejoin="round" stroke-width="2" baseprofile="tiny" version="1.2" viewbox="0 0 1000 701" xmlns="http://www.w3.org/2000/svg">
 <path id="Reykjavik" d="m245.8 523.3-0.9 0.6-1.5-1.5-0.3-0.9-1.2-1.3 0.8-0.8 1 0.8 0.2 0.9 1 0.9 0.9 1.3zm-8.8 32.2-9.6 0.5-8-8.7 7.6-1.5 2.4-1.7 2.2-3.5 0.7 1.2 0.6 0.2 1.1-1.4v-1.3l-1.6-1.6-2.2-1.6-2.1-0.6-1.5 0.9 0.9-3.4 2.3-1.6 2.4-0.2 1.8 0.9-0.7 0.2-1.7 1.4 1.6 0.9 1.8 0.2 1.8-0.4 1.5-0.7v-1.6h-1.8l1.8-1.4-5.6-5.2-3-1.7-3.1-0.2 2.7-2.1 13.6 2.5 1.6 2.5 2.8 1.6 1.5-0.2 1.3-1.4h-2l-0.9-0.5-0.8-0.9 1.1-1.7 1.4-1.2-1.8-1.4 2.3-0.9 3.2 1 3-0.1 1.9-4.1-3.1 1.8-1.7 0.2-0.7-1.4 0.6-2.5 1.5-1.2 2.8-1.4-1.8-1.2-2.7-0.3-2.8 0.4-2 1.1 0.6-3.6-1.1-1.6-1.8-0.4-2.5 0.1-1.6 0.9-0.7 1-3.4-0.7 2.7-2.3 0.9-1.7-0.5-3.1 1.7-1.2 12.6-0.4 10.9 3.8 0.9 14.8-4.5 21.7-16.4 7.1-8.4 8.9z" name="Reykjavík"/>
 <path id="Westfjords" d="m155.1 287.5-0.4 0.5-0.7-0.8 1.2-0.8-0.1 1.1zm2.1-21.6-0.7 1.1v-1.9l1.6-1.1-0.3 1.2-0.6 0.7zm16.9-16.8-0.5 1.8-1.7 0.8-0.5-0.7 1-1.3 0.4 0.2 1.3-0.8zm47.7-2-0.8 0.1 0.4-1.3 0.7-0.6 0.5 0.5-0.8 1.3zm-94.9-1.4-0.9 1.4-0.3-0.6 1.2-0.8zm186.6 64.3v1.9l0.9 3 0.1 3.7-0.3 3.9 0.1 1.9 0.4 2.2 0.7 2.6 1.4 3 2.2 6 1.5 8.1 0.5 2.3 1.5 3.5-6-0.2-3-1.1-2.7-1.6-7-6.2 0.1-2.2-0.4-1.7-1.6-1.7-1.6-2.8-0.9-1-1.6-1.5-0.6-1.1-0.6-2-1.4-4.9-0.3-3.6 0.3-2.5 0.6-2 2.3-4.8 0.6-1.6 0.1-1.5-0.2-1.7-1.7-5.7-0.8-3-0.6-1.5-4.7-5.8-2.1-1.3-0.6-0.8-0.7-1.6-2.5-3.2-5.3-10.9-1.6-4.8-0.7-1.3-1-0.6h-3.3l-7.8 2.2-2.7-3.3-0.6-1.2-0.2-1.3 0.3-1.5 1-1.8 2.2-2 0.7-0.9 0.2-0.9-0.3-2.2 0.5-3.4 0.3-2.5-0.1-6.5-1-2.9-2.4 1.7-1.1 1.8-2.2 5.6-1.6 1.4-8.7 2.9-3.1 0.1-6.5-1.5-5.3 1.6-1.8-0.1 1.8-3.4 1.9-2.5-3.3-3.3-1.2-2.3-0.4-3.4-1.2 0.9-1.3 0.6-1.3 0.2-1.2-0.2 0.5 3.1-0.8 1-1.3-0.3-1-0.8-0.8-2-1.7-5.2-1.2-1.8 0.5 3.7-0.2 3.1-0.8 2.7-1.3 2.5-1.6 2-0.9 0.8-0.9 0.3-0.8 3-0.8 2-0.8 0.9-3.5 0.3-1.5-0.6-2.4-3.8-5.3-4.9-3.8-2-0.5-1.9 1.7-3.6 2-1.4 10-2.2 4.2-3 2.2-0.7 1-0.9 0.2-2.3v-2.6l0.3-1.9 0.7-1.6 1-1.1 2-1.7-2.7 0.8-6.6 9.7-3.1 2.6-2.9 1.4-6.4 0.4v-1.4l3.8-2.8 1.2-1.6v-1.6l-1.9 0.1-1.3 1.3-2.4 3.2-1.8 0.7-1.2-0.8-1-1.3-1.6-0.2v1.6l1.1 1.7-0.5 1.9-1.3 1.7-5 2-1.3-0.7-1-3.8-0.1-3.5 0.3-2.7v-2.7l-1.2-3.7-1.7-7.8-1.1-2.6-1.1 2v3.5l0.1 2.4 1.4 4.6 0.1 1.8-0.6 1.7-1.7 3.9-1 1.5-1.1 0.1-1.3-2.1-1.8-4.1-0.7-0.4-0.6 5.7-0.7 1.7-1 0.8-1.1-0.1-0.7-0.9-0.8-1.7-2-6.9-0.4-3.6 0.6-3.6 2.1-4.2-0.8-1.2-0.9 1.1-0.8 0.1-2.5-1.6h-1.5l-0.5 0.4-0.4 1.2v1.3l0.8 4.7 0.9 2.7 2.5 16.7-1.3 1.4-1.5-0.4-1.7-0.8-1.6-0.2v-1.3l0.5-1.8-0.5-1.5-1-1-1.2-0.3-3 0.9-1-0.2-0.1-2.1-0.7 0.2-2.3-0.2v-1.6l2.2-2.2 4-5.6 2.5-1.2-1-2.4-1.5-1.7-3.2-2-0.5 4.9-1.8 4.2-2.3 2.1-1.8-1.4-0.6-2.4-0.4-2.7-0.6-2.2-0.9-0.9-0.3 1.5-0.4 6.9-0.3 2.1-1.9 2.5-5.5 1.3-2.5 1.5-5-2.5-2.7-2.7 0.3-3.2v-1.4l-2.5 1.5-1.5 4.3-0.2 4.8 1.7 2.8v1.7l-1.1 1.2-2.1 3.4-1.2 1.2-1.4 0.5-6.1-0.8-2.4-1.1-1.5-0.2-1.4-0.7-1.1-1.6-1-2-1.1 0.2-1.3 1.2 1.3 1.5-2.6 1.1-4.8 4-12.2 2.5-2.8-1.6-0.1 2.6-0.4 0.8-1.3 1-3.4 6-16.6 4.6-4.2-0.5-3.7-2.5v-1.6l0.5-1.8-0.3-1.5-0.9-1.5-1.1-1.2 1.6 0.2 0.7 0.4 0.8 0.9 0.2-4-1.6-2-2.1 0.3-0.9 2.9-2.2-3.3-13.9-5.8-25.7 2.8-3.3-0.6-2-3.7 4-2.4 2-2 0.8-2.2 1.2-1.5 5.3-3.4 1.6-1.9 0.3-3.4v-3.9l0.5-3.3 2.8-1.9 1.6-2.1 1.3-0.5 2.3 0.4 8.8 5.3 2.5 0.4 1.6 1 4.9 6.4 3.6 2.2 6.3 1.8 1.5 2 1.3 2.5 1.6 2 2.7 1.4 2.7-0.2 5.1-2.6-4.1 0.1-2.2-0.6-1.7-0.9-1.5-2-1.2-2.5-1.4-2.3-1.8-0.9-4.5-5-2.5-4.3-2.8-3.9-1.6-3.1 13.6 2.8 8.9 5.2 2.8 0.9-1.7-3.4-2.5-2.8-2.5-2-4-1.5-4.7-3.2-4.1-1.5-2-1.9-3.3-4.7-3.7-7.6-0.3-2.8 0.1-2.7-0.1-2.6-0.9-2.6 3.8-3.4 3.9 0.3 38.2 21.4 0.8 1.1 1.6 3.3 2.5 1.9 0.6 1.1 0.9 3.9-0.4 2.5-0.9 2.3-0.8 3.3 1.6 0.9 2.1-1.7 3.7-5.2 0.4 1.1 1.4 1.9 1-2.1 4.9 1.3 2.2-0.7v-1.5l-1.2-0.9-0.6-2.1 1.5-0.1 4.1-2.9 1.4-0.2 1.5 0.2 1.4-0.1 1.2-1.4-10.7 0.9-4.9-1.6-3.6-2.3-1.2-1.5-1.6-2.6-0.9-2.4 0.9-1.1 5.6-2.7 1.2 0.5 1.5 1.3 7.3-1 2.4-2.2 1.8-0.5 4 1.6 1.9 0.2 1.9-1.8-1.7-1.5h-0.8v-1.3l4.3-3 1.3-1.7-5 0.7-2.8 1.4-3.9 3.5-24.4-0.6-4.8-2-3.1-3-4.8 1.8-1.1-1-1.2-2.2-5.3-6-2.9-6-1.9-7.2 0.3-6.7 3.8-4.4 1.8-0.1 5.2 3.1 6.7 1.6 1.7 1.1 2.9 3.6 1.6 1.3 1.7 0.2 5.7-1.7 11.2 4.5h3.7l6.4 4.8 3.5 1.5 3.2-1.6-7.5-2.4-2.4-3.1-7.5-0.7-2.3-1.4-4.2-3.8-9.4-2.3-2.1-1.6-4.9-6.7-2.5-1.4-1.2-2.1-1.9-0.9-4.2-3.9-3.7-5.2-0.8-1.8v-6.9l0.5-3.6 1.4-2.7 3.7-1.3 4.7 1 16.4 10.1 4.8 1.2 3.2-1.8 0.4 3.5 1.1 2.9 1.6 2.1 1.8 0.7v-1.4l-1.5-2.3-2.8-7-1.8-1.4-2.1-0.5-4.1-2.1-2.2-0.5-1-0.7-2.8-3.9-5.3-4.8-3-4.3 2.9-2.4 7.9-0.8 6 1 8 6.7-2.2-2.1-3.5-5.9-2.1-1.2-8.6 0.2-2.2-1.6v-1.7l0.9-1.7 1.3-2 1.5-1.7 1.6-0.7 3.7-0.2 1.4-1.3 0.2-2.9 2-1.1 14.2 4.1 9.2 6.9 2.7 0.6 1.8 1.5 2.3 3.4 1.6 4-0.4 3.4 0.6 4.8 4.5-7.1 1.8-0.8 0.9 0.6 0.9 1.3 1.3 2.8 1.6 2.4 0.2 1.2v3.3l0.5 3.6 0.1 2.1-0.6 1.7-1.5 2.8-0.3 0.5-4.1 7.7-0.9 2.2h0.6l1.9-3.1 5-6.2 1.8-3 0.9-3.8 0.6-1.6 0.9-0.7 1.1 0.7 0.7 1.7 1.3 5.3 0.7 0.3 1.5-2.1 1.4-1.2 1.4 1.4-1.6 5.2-2.1 5.2-2.6 4.2-3 2.1 3.6-0.2 1.7-0.9 1.5-1.9 1.7-5.7 1.3-3.4 1-0.7 1.3 6-0.6 6.2-0.8 5.2 0.5 3.1 3.1-10.7-0.2-5 0.4-5.7 0.7-5.3 1-3.8 0.7-1.6 0.5-0.4 6.1 0.6 0.6 0.7 0.3 3 0.5 1.8 0.8 1.2 3.5 3.7 3.2 6.2 0.6 0.8 0.1 1-0.5 4.8-0.3 2.5-0.6 2.1-0.7 1.1 0.6 1.4-4.6 13-1 4.1 0.7 1.9 1.1-0.4 2.2-8.5 6-16.2 0.6-4.4v-1.6l1.9-0.4 1.2 2.1 1.1 3.2 1.4 2.8 0.6 0.1 1.1-0.5 0.7 1.9v1.8l-0.5 1.7-0.1 1.5 1.3 1.1 0.5-3.4 0.6-1.7 0.7 0.5v1.5l-0.6 7.6-0.8 2.5-2.1 4.2-0.8 2.5v1.4l3.4-2 3.6-12.4 2.9-2.3v-1.6l-1.9-2.1-1-4.2-0.7-5-0.8-3.9-1.3-3.1-1.7-3-1.9-2.3-1.9-0.8 0.9-2.9 0.4-2.8 0.5-2.5 1.3-2.2 1.8-0.9 1.8-0.1 1.5-0.8 1.1-3h-1.9l-4.4 2.3-1.7 1.7-1.7 0.6-7.6-3.8-5-5.3-21.5-9.4-6.4-6.8-3.7-9.9 4.2-2.8 13.4-3.6 2.9 0.1 9.6 3.1h2.4l1 0.4 1.2 2.8 2.4 2.5 1.3 0.4 1.3-1.4-1.1-1.8-0.8-2.9h4.5l2.3-0.6 3.9-3.2 4.5-0.5 2.1-1.7-12.3 1.9-3.7-1.9-1.8-1.9 0.4-0.3 1.4-0.2 1.5-1.6 1-1.6 1.3-1.4 1.5-0.8 1.5 0.1v-1.7l-2-1.2-1.2 0.5-3.6 3.8-4.6 2.5-5.3 0.6-4.3-0.9-0.7-0.5-0.2-2.5 0.8-1.6 1.9-2.2 0.3-1.6 0.5-4.6 0.4-1.4 1.2-1.4 4.3-1.8-3.9 0.8-3 2.1-7.1 7.8-1.7 1-3.8 0.6-1.1-1.3 0.6-3 1.4-3.1 1.3-1.7v-1.7l-3.1 1.3-1.6 1.4-1.5 2-3.6 6.5-0.7 0.4-2.2 2.7-14.3-3.8-3.8-2.2-2.4-3.2-1.5-1.5-0.6-1.5 1.2-2.1 3.5-0.2 4.3 1.7 3.9-0.6 2-7-2.6-0.4-2.8-2.2-2.7-3.2-1.9-3.5 2.8-2.3 2.8 1.4 2.9 2.5 2.7 1.5-0.7-2.6-1.2-2.2 9.9-1.7 0.7 0.3 0.5 0.9 0.8 2.8 0.5 0.9 2 0.5 0.8-1.7-0.3-2.2-1.5-1.2-1.5-0.6-4.5-4h9.1l1.6 0.7 3.2 3.2 4.1 1.6 3.2 4 1.8 1.3 2.4-0.4 3.5-4.2 2.1-1.6-0.5-3.1 3.5-1.3 2.9 2.4 2.9 3.4 6.2 3.1 1.4-0.3 0.4-2.8-0.7-2.2-2.3-1.7-0.7-2.1 2.9 0.5 2.8 2.8 2.1 4.5 0.8 5.3 1.6 3.3 7.4 4.2 2.3 4.2-1.3 2.3 1.1 1.3 3.9 0.9v1.5l-1.7-0.5-0.7 0.9-0.1 2v2.4l1.2 2.7 0.2 1.7-1.4 1.6v1.7l1.2 1.5 1.2-1.4 1.4-1.1 1.5-0.7h1.4l0.9 1 0.7 1.5 0.9 0.7 2-4.4 1.5-0.4 0.8 1.5-0.5 3.3 6.4-0.7 1.6 0.7 0.8-1.4 0.8-0.1 1.5 1.5 3.7 6.1-0.8 1.6-5.3 4.6 1.2 0.8 1.1-0.6 1.2-1.2 1.4-0.7 1.3 0.3 4.3 3.6 1.1 1.7 0.7 0.6 0.9 0.1 1.8-1.2 1-0.2 5.7 3-0.7 3 1.6 1 0.9 2.7v2.7l-1.3 1.2 1.1 3.6 0.2 1 0.2 3.7 0.4 4.3 0.6 1.5 1.2 1.1 1.3-0.2 1.6-1 1.6-0.4 1.1 1.6 0.2 3.1-0.8 2.8-1.1 2.6-0.7 2.3 1.1-0.3 1.5-1 1.2-1.3 0.5-1.2 0.1-3.7-0.1-1.7-1.9-4.5 1.1-1.2 3.2-1.7 4.1-0.2 0.6 0.7 0.9 3.3 0.4 0.8 1.6 0.8-1 1.7-2 1.6-0.8 0.3-0.6 2.2 0.4 1.6 1.7 3 2.3 1.9 9.8-2.7 2.6 0.7 2.2 1.2 1.6 2.6 1.1 4.7-12.7 1.2-2.5 2.1-9.5 2.8h-1.4l1.7 3.1 2.5-0.3 5.1-2.8 8.5-1.6 2.7 1.6-1.1 1.9-3.9 2.8v1.5l9.7-2.8 2.4 2 1.3 4.5 0.3 3.8-1.1 2.9-2.7 1.7 4.3 3v1.7l-4.4 10.5-1.7 2.9-2.6 2.5-9.2 3.5v1.7l1.9 0.1 3.4-0.6 1.5 0.5 4.8 3.1 1.5 1.4-7.5 9-2.6 2.1-12.3-0.6-0.9-1-1.9-3.5-1.7-1.3-1.6-2.9-1.1-3.1-0.2-1.9-2.2-3.1-2.8-1.6-2.9 0.1-2.6 1.6 1.7 0.3 4.3 2.8 1.4 1.4 0.2 0.6 1.9 3.6 0.4 0.4 0.2 2.6-0.3 1.8-0.7 1.4-1.1 1.8 1.4 1.5 0.8 1.1 0.3 1.2 0.5 2.9 1 1.6 3.1 3 15.1-0.4 2.6 1.4 1.2 2.8-0.9 2.5-4.7 7.5-1.8 2v1.5l4.4-2.5 5.5-5 4.8-1.1 2 9.4-1.9 8-4.6 7.7-5.3 5.6-4.3 1.7v1.5l9.1-3.5 3.5-3.2 2-0.7 2 0.4 1.3 1.2 2.6 4.3 3.4 3.3 0.9 2.2-0.6 3.6 1.2 0.8 0.2 1.6-0.2 2.3 0.1 2.7 0.5 4.8v3.4l-0.4 4.3 0.1 2.2 3.5 11.3 1.2 2.2-0.7 1.4 1.8 1.9 1.9 3.6 0.9 4.2-0.8 3.8v1.4l1.5 1.3 0.5-0.5z" name="Vestfirðir"/>
 <path id="East" d="m662.7 601-7.3 0.9v-0.4l5.4-1.3 1.6 0.3 0.3 0.5zm37.7-1-9.2 1.1 3.7-1.1 0.5-1.2 4.5 0.3 0.5 0.9zm14.7-2.8-3.7 0.9 1.3-1.1 1.7-0.2 0.7 0.4zm-30-1.4-0.4 2-0.7-0.4 0.4-2.7 0.5-0.7 0.2 1.8zm30.4 0.3-0.8 0.2-0.4-0.7 0.7-1 2.3-1.8 0.4 0.3-2.2 3zm9.1-14-5.1 7.6-0.5-0.5 0.3-1.4 4.3-5.2 1-0.5zm213.1-150.7 2.7 0.5 0.1 1-0.4 0.8-0.9 0.4-1.1-0.2-0.6-0.9-0.6-0.1 0.8-1.5zm-289.8 171.6-0.2-2.3 0.4-35.8 0.5-4.1 3.3-12.6 42-90.1 17.2-35.1 2.2-7.7 1.9-8.3 0.5-2.9 0.3-3.6-0.2-1.9-0.9-3.5-0.2-1.7-0.5-1.7-2.2-5.8-0.1-1.7 0.3-1.7 2.4-5.4 1.3-2 0.7-1.2 0.2-2-0.6-2.4 0.2-2.7 0.6-3.2 0.4-1.2 0.5-0.7 2.3-0.2 5.2-2.6 1.6-0.4 3.7-0.1 1.6-0.4 1.6-1.3 4.8-6.8 3.9-4.2 1-0.8 6-1.9 1.1-0.9 1.3-1.5 2.3-3.7 0.7-1.7v-1.2l-1.6-1.3-0.3-0.6-0.1-1.9 0.6-2.9 1.2-7.3v-4.7l-0.2-2.8v-1.8l0.3-3.2-0.3-1.9 0.1-1.6 0.6-3.1 1.1-2.9 2.5-3.9 2.7-5.6 1-1 4.7-3.5 1-1.2 0.7-1.7 1.2-3.5 0.4-1.8 0.1-1.4-0.5-2.6-0.4-1.5-2.6-4.5-1.7-2.3-6.9-4.8-0.4-0.6-0.9-1.9v-2l0.3-2.5 0.8-2.1 1.2-1.4 1.8-3.5 1.6-0.7 1-0.9 1.1-1.6 1.2-2.8 1.4-4.2 0.9-3.4 0.2-1.6 0.6-5.3 0.5-1.5 0.8-1 1.3-0.2 28 5.8 1-0.2 0.2-1 0.1-2.6 0.6-3.6 2.1-7.1 0.1-1.9-0.2-1.7-0.6-3.4-0.2-2.2-0.1-5.8-0.4-2.8-0.7-1.7-0.2-2.6 0.2-3.4 0.2-1.5 0.5-1.4 1-0.7 18.8-5.2 0.7-0.5 0.6-3.3 0.7-1.4 1.4-1.8 1.3-1.1 4.8-2.9 1.2-1.2 0.8-1.6 1.2-5.1 8.1-1.3 5.4-4.1 3.6-4.1 2.3-4.9 36.8-4.8 2.8-8.3 4.4-1.1 0.9 4.9 0.1 2.5-0.3 0.9-1.1 1.2-0.5 0.9 0.1 3.4-0.1 1-2 5.4-0.4 1.5-1 1-5.9 7.3-6.6 5.1-2.1 2.6 0.2 3.9-1.8 3.1-4.5 5.1 2.7-0.2 2.4-1.9 4.2-5.6-1.4 4.5-2.6 5-1.1 3.9 3.2 1.7 3.3-1 7.1-4.1 19.4-5.3 7-3.9 3.7-1 2.9 3.2-4 9.3-2.2 2.3 0.2 1.8 0.7 1.9 0.8 1.3 2 1.6 5.8 3.9 1.6 2.1-4.9 1.5-2.6 2.1-2.2 5.7-4.7 5.6-1.8 4.6-6.9 8.3-1.4 2.8-1 3.3-0.5 3.6 1.2-1.7 1.9-4.8 0.9-0.9 1.1-0.6 3-3.2 0.9-1.4 1.7-3.5 11.2-17 2-1.4 2.4 0.6 7.2 5.4-1.5-2.1-2.5-2.8-1-2.4 19.8 11.9 2.6 0.4 9.9-2.5 1.7 0.2 1 1.1 0.7 2.6 0.1 2.3-0.5 1.5-1.2 0.4v1.4l2.9-0.1 1.2 0.4 0.9 1.3 0.1 1.5-0.7 4.6 0.6 1.6 0.8 1.2 1.7 1.5 4.2-6.2 2.3-1.8 2.7 0.7 0.5 0.9 0.2 3.5 0.5 0.1 1.3-0.4 0.6 0.3 3.2 3.6 0.6 1 0.1 4.8-1.3 3-1.7 2.1-0.9 2 0.2 1.2 1.1 4.2v1.9l-0.6 0.8-3.1 2.3 0.9 1.3v1.7l-0.3 2v2.4l-3 2.2-8.3-1.2-3.6 2 2.3 1.9 7 2.5 0.3 3.6-2.1 2.4-2.9 1.3-4.5 0.1-1.9 0.6-3.8 2.4-7.5 1.4-2.4 1.5 1.5 2.1 14.3-5.4 4.4 0.4 8.7-2.3 2.7 0.8 4.5 3 2.3 2.5 1.3 3.5-2.1 1.7-3.7 5.9-2 1.3-11.4 2.9h-12.1l-5.3 1.3h-5.5l2.8 2.3 10.5-2.3 13.9 1.6 6.2-1.6h3.4l0.9 0.8-0.4 1.5-1.4 2.4-0.2 1.4v1.8l-0.4 1-3.5 1.6-3 0.3-2.8 1.1v1.6l7-1.5 1.6 1.5v1.4l-0.9 0.2-0.8 0.6-0.7 0.9-0.7 1.3h2.8l0.9 0.5 1.6 2.3 0.9-0.6 1.5-3 0.7-0.6 0.2-0.9 2.6-5.1 3.7-4.4 0.3 3.1v4.6l-0.3 4.4-0.6 2.5v1.6l1.7 1.3 0.5 2-0.6 2.6-1.6 2.9-1.8 1.7-3.8 1.2-1.8 1.5 1.6 3 0.8 2-0.3 0.9-1.4 0.7-2.8 3.1-1.4 0.7-6.5-1.6-5.6 1-1.8-1-0.9-2-0.8-3-0.9-2.6-1.4-1.2-1.5-0.5-3-2-4.7-1.6-5-5-2.8-1.1 0.5 2.3 1 1.8 1.1 1.1 1 0.6-3.2 3.7-18.5 0.7v1.6l28.6 2.8 0.9 0.9 1.2 1.6 1.1 2.1 0.5 2.1 0.8 1.1 4.2 3.9 9.3 4.4 1.8 3-3.7 3-4.5-0.7-7.9-3.8-9 1.5-5.5-2.4-1.6 0.9 5.4 3.8 12.9 3 5.9 4.9 0.7 1.3 0.8 1.9 0.3 1.9-0.9 0.7-1.5 0.7-2.3 3-1.2 0.7-9.4-3.7-2.7 2.4 9.8 4 1.6 1.6 0.1 2.3-2.6 0.8-10.3-0.4-2.9-1.2-0.5 1-0.8 0.8-1.8 1.1v1.6l2.8 3.5 1.4 2.3 1.4 2.9-1.5 0.5-4.1 3.8-20.1 4.4-3.3-1.1-1.7-1.1-1.2-1.4-2.6-8.3-2.3-2.4-2.5-4.9-1.3-1.1-7.1-1.6 0.9 1.2 0.9 0.5 2.2-0.1 1.2 1-0.1 2.2-0.6 2.4-0.2 1.5 1.4 1.8 4.6 2.5 1.5 0.2-0.2 4.1 1.3 3.4 1.7 2.8 1.2 1.3 4.5 1.5 1.7 1.9-1 2.3 0.6 1.5-15.1-5.1-4.7 3.6 1.5 1.8 3.6 1.9 1.8 2.1 0.9 2.4-0.2 2-0.9 1.6-1.7 1.2h-12.1l-1.1 1.4 1.1 2.8 1.8 2.4 1-0.1 0.9 2.2 1.9 1.4 1.8 0.1 0.4-1.5 3.7-1.1 5.6-8.4 2.8-2.1 0.5 1.1-1.3 2.3-8.3 10.2-1.2 2.4-0.3 2-0.3 4.3-0.4 1.7-2.9 5.2-0.4 1.9 0.4 3.5-0.1 0.8-1.4 1.7-0.4 2.2-1 3.2-0.3 0.7-9.4 1.1-6.5 2.3-2.4 1 4-3.1 8-2.3 4.1-1.7-2.3-1.6-10-1.6-0.7 0.3-0.1 0.9 0.1 2.8-2.9 3-1.1 0.5-0.4 0.5-1.9 3.6-1 1.1-5 3.3-2.1 2.1-1.8 2.6-0.7 0.1 0.8-1.9v-1.4h-0.7l-0.6 2.1-1.4 1.8-1.5 1.3-1.1 0.5-0.3 0.7 0.3 1.5 0.7 1.5 0.9 0.7 1.9-0.2 0.9-0.5 0.9-0.9 0.4 3 0.8 2.8-2-0.1-2.7 3.5-1.8 0.9-4.2-0.4-1.8-0.9-1.8-1.5-2.8-3.5-1.8-1.6-1.8-0.6-0.8 0.6-1.7 2.7-0.9 0.9-1.1-0.3-1-0.8-1.1-0.3-1.2 1.4 1.2 1.5-1 1-1 0.4-2.2-0.1 1.7-5.7v-1.3l-2.9 0.8-1.4-0.1-0.6-1.5-0.4-3.2-1-2.2-1.2-0.7-1.1 1.1v1.4l1.3 2.1 0.3 1.4 0.3 2.2-1.2-0.9-2.6-0.9-1.2-1.1v-1.2l0.9-3-1.3-4.4-2.3-4-1.9-1.8-1.9-2-3.6-1.5-2.3-0.6 1.6 1.3 3.1 1.3 1.8 0.9 1 2.3 1.6 5.1 0.8 1.8-0.7 1.1-0.8 0.4-0.8-0.4-0.7-1.1v1.6l1.8 1.6 0.3 3.3-0.7 3.6-1.4 3-2.3 1.2-5-1.4-2.1 1.5 1.3 1.1 1.4 0.4h3l-2.3 1.9-5.8 2.2-5.2 0.5-5.5 2-2.3 2-1-2-0.3-1-2.5 3.6-8 6.5 7.5-2.6 1.8 1.3-3.1 2.5-23.4 7.2-3.3 3h4.3v1.3l-5.7 5-2 0.7-0.9 0.5-3.1 3.7-2.1 1.6-0.9 1-0.7 1.8-0.9-2-0.9-0.4-0.9 0.9-1 1.5v1.4h1.2v1.3l-5.4 3.8-2 0.5 0.6-2.9-4.9 3.7-2.4 2.9-1.4 3.4 1.5 0.1 1.2-1.1 0.9-1.2-2.4 4.8-1.2 1.7-6.5 5.7-4.3 6.9-0.6-0.1 1-1.6 0.5-2.4-13.7 11.3-12.1 3.6-1.8-0.5 0.7 0.9 0.9 0.1-1.7 1-1.5 0.4 0.3 2.2v2.8l-0.5 2.5-1 0.9-0.4-0.6-0.2-1.4v-2.8l-0.2-0.7-1.7-1.5-3.4-4.7-0.9-0.9-1.4-0.5-0.8 0.6-0.2 1.8v3l0.3 3.8-0.1 2.7-0.6 1.2-1.2-0.7-0.2-1.8 0.5-5.2-0.3-1.8-0.6-2.4-0.7-1.3-0.3 1.3v5.5l-0.1 2.6-0.5 2.3 1.3 1.9-0.5 1.4-1.4 0.9-1.8 0.2 1-4.6 0.1-2-0.6-1.8 0.7-2.5 1.1-1v-1.1l-0.5-1.1 0.5-5.5 0.1-3-0.6-2.1-1-1.6-1-0.9-0.5 1.1-0.2 5.3 0.1 2.2 0.8 1.8-1.5 1.4-1.7-0.1-1.5 0.3-0.9 2.5 1.1 2.1 0.4 2.4 0.7 2.2 1.5 1.6-1.7 2.3-3.3 0.8-6.5-0.2-1.4-0.4-3.2-2.5-1.3 0.9-1.2 1.4-0.9-0.1-0.3-3.5-11.2 7-5 1.7z" name="Austurland"/>
 <path id="Northwest" d="m553.8 371.6-40.2 9-25.7 11.5-22.6-0.1-23.7 7.2-2.6 0.2-2.2-0.5-23.2-10.4 4.8-8.4 10.4-11.4 0.8-1.5 0.6-1.9v-2.9l-0.7-2.1-0.8-0.4-26.7-1.2-21.6-0.5-4.3-2.3-1.3-0.1-29 8.8-1.5-0.2-3.4-3.5-1-0.4-7.5-0.6-1.3-0.4-7.8-5.2-0.8-2.2-1.5-3.5-0.5-2.3-1.5-8.1-2.2-6-1.4-3-0.7-2.6-0.4-2.2-0.1-1.9 0.3-3.9-0.1-3.7-0.9-3v-1.9l1-0.8 0.7-3-1.3-5.2-0.3-3.5-0.3-1.6-0.8-2.2-1.5-3.3-0.8-1.9 1.4-2.4 0.5-0.7-0.3-1.8 0.6-1.4 0.9-1.2 0.6-1.4 0.5-3.3v-3l-1.9-16.4-0.4-6.9 1.2-3.1 2.8 1.6 1.9 3.9 2.8 9.2 2.6 5.3 0.4 1.5 0.6 1.6 3.1 1 1.3 1.1 0.6-1.6-2.3-5-2.1-6.7-1.7-7.1-0.7-6.4-0.3-5.2-0.1-3.5 0.4-3.3 0.4-1.2 1.1-2 0.4-1.1 1-6.3 0.2-1.4 2.8-5.4 10.2-8.1 5.6-7.5 1.6-0.9 1.8-0.5 1.2-0.9 0.4-2.2 1.1-0.2 0.9 0.7 1.7 2.5 1.6-0.2 0.3 0.2 0.2 1.9-0.9 1.3-0.6 8.7-0.1 4.5 0.7 3.2-1.1 3.7v3.8l0.9 2.3 2-0.8-0.9-4 0.2-3.6 1.1-1.6 2.2 1.7 0.8 1.4v2.2l0.4 2.5-0.6 3.2 0.3 1.1 1.7 1 0.5 0.5 0.7 1.9 0.7 2.8 1 1.3 1 0.8 1.1 0.6 1.2 0.2 1.1-0.2 2-1.4 0.8-2.4 0.5-3.3 1-4.7-1-0.9-1.4-3-1-0.6-3.1 0.3-1.5-0.5-1.3-1.4 3-1.2 2.9-0.2 1.2-0.5 2.5-2 1.3-0.5 1.1 2.1-0.3 9.7 1.3 3.1-0.4-3.5 0.9-2.6 0.6-2.5-1.1-3.3 1-2.9 2.9-4.3 1.4-2.6 0.3-1.6 0.2-3.6 0.4-1.6 0.9-0.8h1.6l1.9-0.5-2-0.5-1.3-2.7-0.1-3 1.2-1.5 1.2-0.9 0.9-2.2 0.5-3.2 0.2-3.5-0.7-5.7-1.8-5.2-2.2-4.1-2.1-2.3v-1.6l2.4-2.3-1-6.4-2.3-7.2-3.4-7.8-0.7-2.1-0.5-7.6-0.6-3.7-1-2.9-1.3-2.3-1.6-1.9 1.4-2.2 1.3-3.4 0.4-3.6-1.2-2.9 1.8-1.6 2.2-0.4 3.8 0.5 0.9-0.4 1.6-1.9 0.9-0.7 1.2-0.4 3.2 0.4 1.7-1 3.3-4.2 1.4-0.9 4.4 1.6 2.1 0.2 1.9-1.8 0.5 4.7 1.2 2.8 1.7 1.7 2.1 1.4-0.6 1.7 1 0.9 0.6 1.7 0.9 3.3 1.2 3.4 3.8 7.3 0.5 2 0.4 1.7 0.4 1.4 1.1 1-1.2 3 1.8 3 2.3 2.4 1.7 2.8-0.2 4.1 1.6 1.5 4.9 0.8 3.6 2.5 2.1 0.1 1.6 2.5 1.2-0.2 0.5 0.3 0.5 1.6 0.7 4.6 2 4.4 0.5 1.6 0.4 2.8 0.5 5.9 0.6 2.6 2 2.7 4.6 1.4 1.8 2.7 0.6-4.7 0.6-1.7 2.8 0.4 1.6 2.2 0.6 0.6 2.8 0.7-0.6 0.7-0.3 1 0.3 1.8 0.8 0.1 1.6-1.1 1-1.3 0.8-3.1 1.1-6.3 0.6-6.4v-5.6l-0.6-5.2-1.3-5.4-2.5-7.7-0.3-1.4-5.3-6-0.1-1.6 0.4-2.1 0.8-1.8 1.1-0.7 1.7-0.4 1.8-1.2 1.7-1.8 1.3-2.6-1-1.3-0.8-1.8-0.7-2.2-0.9-4.7v-0.8l1.2-2.3 1.7-2.1 5.1-2.8 12.1-2 4.2 3.2 2.3 0.4-0.2-3.6 1.4-1.5 0.8-0.2 0.9 0.3-0.6 3 1.8 0.7 3 3.3 1.9 0.4-1.1-1.1-0.9-1.2-0.6-1.7-0.4-2h0.6v-1.4l-1.9-1.7v-1.4l0.9-1.5 0.9-5.3 0.6-2.2 0.5 0.2 4.2 3.9 1.4 2.6 1.5 4.3 3.1 6.5 1 1.6 7.5 9.3 1.1 2.5 0.1 1.8-1.6 1.4-0.8 1.2v1.1l0.1 3.1-0.2 0.7-0.6 1-1.2 0.9-0.7 1.6 0.6 0.9 1.5 0.9 1.1 1 0.5 1.1 0.5 1.5 0.2 2v1.9l-0.1 1.6-0.4 1.4-0.6 1.4-2.3 3.9-1.4 1.3-0.8 0.3-3.2 0.3-1.1 0.7-0.8 1.7-0.6 2.7-0.1 2.3 0.2 1.5 0.5 1.3 0.8 0.9 3.4 2.6 4.4 4.7 1.9 0.6 0.8 0.9 0.9 1.5 1.4 3.8 0.6 1.9 0.2 1.4-0.4 1.7-0.1 1.6 0.3 1.2 1.9 3.3 0.3 3.4-0.3 1.2-0.5 1-3.9 3.1-0.9 1.4-0.2 1v2.7l-0.7 1.8-1.2 2.1-0.3 2.4-0.2 0.9-1 1.5-1.4 1.3-0.3 1.8 0.3 1.5 0.7 1.1 0.6 0.5 1.3 0.4 1.3 1.2 1.7 2.9 0.9 0.6 3 0.5 0.8 0.6 1.3 1.4 2.1 1.6 1.3 1.7 1.6 1.7 0.6 1.1 0.2 1.7-0.4 1.5-0.5 0.9-1.9 2.4-0.5 1v3.3l-0.5 1.8-0.9 2.2-0.4 1.4-0.1 1.8 0.5 1 0.9 0.8 1.3 0.6 1.4 1.1 1.2 1.5 0.9 2.2 0.5 4.5 0.7 1.6 1 1.1 1.2 0.6 6.2 0.9 0.8 0.6 0.7 1.1 0.5 2.2 1.1 7.4 1.2 3.5 1.5 2.8 4 4.6 7.4 4.7 1.4 1.3 1.5 2.5 0.6 2.3 0.9 5 1 8.2 0.3 10.9v5.8l-0.2 4.8-0.4 4-2.2 14.1-4 17.3z" name="Norðurland vestra"/>
 <path id="Northeast" d="m560.1 132-1.2 0.8-1.1-0.4-0.8-0.8-0.5-1.3-0.2-1.8-0.5-2.7-0.9-3.2 0.5-0.8 1.8 2 1.6 2.7 1.3 2.9v2.6zm47.6-42.6-0.1 2.5-0.7-0.1-0.5 1.2-1.6-0.6h-1.5l-0.1-2.1 0.9-0.7 2.4-0.5 1.2 0.3zm290.8 41.6-4.4 1.1-2.8 8.3-36.8 4.8-2.3 4.9-3.6 4.1-5.4 4.1-8.1 1.3-1.2 5.1-0.8 1.6-1.2 1.2-4.8 2.9-1.3 1.1-1.4 1.8-0.7 1.4-0.6 3.3-0.7 0.5-18.8 5.2-1 0.7-0.5 1.4-0.2 1.5-0.2 3.4 0.2 2.6 0.7 1.7 0.4 2.8 0.1 5.8 0.2 2.2 0.6 3.4 0.2 1.7-0.1 1.9-2.1 7.1-0.6 3.6-0.1 2.6-0.2 1-1 0.2-28-5.8-1.3 0.2-0.8 1-0.5 1.5-0.6 5.3-0.2 1.6-0.9 3.4-1.4 4.2-1.2 2.8-1.1 1.6-1 0.9-1.6 0.7-1.8 3.5-1.2 1.4-0.8 2.1-0.3 2.5v2l0.9 1.9 0.4 0.6 6.9 4.8 1.7 2.3 2.6 4.5 0.4 1.5 0.5 2.6-0.1 1.4-0.4 1.8-1.2 3.5-0.7 1.7-1 1.2-4.7 3.5-1 1-2.7 5.6-2.5 3.9-1.1 2.9-0.6 3.1-0.1 1.6 0.3 1.9-0.3 3.2v1.8l0.2 2.8v4.7l-1.2 7.3-0.6 2.9 0.1 1.9 0.3 0.6 1.6 1.3v1.2l-0.7 1.7-2.3 3.7-1.3 1.5-1.1 0.9-6 1.9-1 0.8-3.9 4.2-4.8 6.8-1.6 1.3-1.6 0.4-3.7 0.1-1.6 0.4-5.2 2.6-2.3 0.2-0.5 0.7-0.4 1.2-0.6 3.2-0.2 2.7 0.6 2.4-0.2 2-0.7 1.2-1.3 2-2.4 5.4-0.3 1.7 0.1 1.7 2.2 5.8 0.5 1.7 0.2 1.7 0.9 3.5 0.2 1.9-0.3 3.6-0.5 2.9-1.9 8.3-2.2 7.7-17.2 35.1-51.2-30.9-45.6-27-25.9-15.1-9-5.5-8.4-8 4-17.3 2.2-14.1 0.4-4 0.2-4.8v-5.8l-0.3-10.9-1-8.2-0.9-5-0.6-2.3-1.5-2.5-1.4-1.3-7.4-4.7-4-4.6-1.5-2.8-1.2-3.5-1.1-7.4-0.5-2.2-0.7-1.1-0.8-0.6-6.2-0.9-1.2-0.6-1-1.1-0.7-1.6-0.5-4.5-0.9-2.2-1.2-1.5-1.4-1.1-1.3-0.6-0.9-0.8-0.5-1 0.1-1.8 0.4-1.4 0.9-2.2 0.5-1.8v-3.3l0.5-1 1.9-2.4 0.5-0.9 0.4-1.5-0.2-1.7-0.6-1.1-1.6-1.7-1.3-1.7-2.1-1.6-1.3-1.4-0.8-0.6-3-0.5-0.9-0.6-1.7-2.9-1.3-1.2-1.3-0.4-0.6-0.5-0.7-1.1-0.3-1.5 0.3-1.8 1.4-1.3 1-1.5 0.2-0.9 0.3-2.4 1.2-2.1 0.7-1.8v-2.7l0.2-1 0.9-1.4 3.9-3.1 0.5-1 0.3-1.2-0.3-3.4-1.9-3.3-0.3-1.2 0.1-1.6 0.4-1.7-0.2-1.4-0.6-1.9-1.4-3.8-0.9-1.5-0.8-0.9-1.9-0.6-4.4-4.7-3.4-2.6-0.8-0.9-0.5-1.3-0.2-1.5 0.1-2.3 0.6-2.7 0.8-1.7 1.1-0.7 3.2-0.3 0.8-0.3 1.4-1.3 2.3-3.9 0.6-1.4 0.4-1.4 0.1-1.6v-1.9l-0.2-2-0.5-1.5-0.5-1.1-1.1-1-1.5-0.9-0.6-0.9 0.7-1.6 1.2-0.9 0.6-1 0.2-0.7-0.1-3.1v-1.1l0.8-1.2 1.6-1.4-0.1-1.8-1.1-2.5-7.5-9.3-1-1.6-3.1-6.5-1.5-4.3-1.4-2.6-4.2-3.9-0.5-0.2 0.9-1.5 3.2-2.8 8-3.1 2.9 1.4-0.6 7.2 1.7-0.7 1.2-1.9 2.1-4.9-0.7-3 1.6-1.4 2.5 0.5 4.5 2.2-0.7 3.4-1.5 4.9-0.3 3.3 1-0.1 6.5-6.8 2.7 0.6 2.1 2.7 1.9 2.9 1.7 1.4 0.8 1.6-1 3.5-2.6 5.7 1.2 0.1 1.3-0.3 1.2-0.9 0.9-1.2 1.1-0.9 1.1 1 1.2 1.4 1 0.8 1.4 1.7 0.9 3.9 0.7 4.5 1 3.5-1.7 6.6-0.7 3.9 0.2 1.8 6.5 1.6 4.2 2.7 6.7 1 0.9 0.7 1 1.8 1.5 3.6 2.1 1.7 0.7 2.2 0.4 2.6 1.3 4.6 0.7 0.3 1.7-0.2 0.8 0.2 0.6 0.8 0.9 2.7 0.3 1.8-0.2 6.2 0.3 2.5 1.7 3.9 0.5 1.7v9.3l0.3 1.4 0.8 0.6 2.6 3.9 4.3 4.5-0.5 2.9 0.4 4 1.1 3.1 1.5 0.5 1.1-2.7v-4.1l-0.8-3.9-0.9-2.7-0.7-0.8-1.9-1.4-0.5-0.9-0.4-2.5 0.2-1.4 0.8-2.3v-2l-0.3-3.1 0.3-2.4 0.5-0.8 1.5-1.5 0.5-0.7 0.5-4.1-0.3-3.5-2.7-10.5v-3.8l-0.2-0.8-1.2 0.3-0.5-0.2-1.8-4-0.7-0.7-0.4-1.2-1 0.3-0.7 2.1-0.3 0.4-1.2-0.8-2.8-3.6-1-1.6 0.9-3.2-0.4-2.9-1.1-2.3-2.6-1.7-1.8-4.6-1.2-2.1v-1.6h0.7v-1.6l-2.5-6.3-1.1-10.4 0.5-10.4 2.4-6.5 1.2-0.5 8.1 0.5 1.3 0.8 2.1 1.9 1.3 0.4 3.8-0.4 1.5 0.4-0.3 1.2-0.4 0.4 3.4 2 8.9-2.3 3.8 1.7 0.8 1.8 0.9 4.4 0.8 1.6 1 0.5 3.7-0.5 1.6 1 2.9 4.2 1.6 0.9 1.3 1.1 3.5 5.6 1.1 2.4 1.5 6.5 1 2.9 2.9 2.2 1.6 2.3 2.3 4.5 3.1 9.2 1.3 2.9 0.3-4.2-0.7-3.3-1.2-3-0.9-3.2 1.7 0.1 2.1-0.6 2-1.1 1.6-1.5-8.3 0.5-2.2-1.9 14.4-0.2 1.1 1.1 0.6 2.5 1.3 4.1h0.5l0.5-1.6 0.1-1.6-0.3-1.6-0.8-1.3v-1.4l1.1-1 1.1-1.6 0.5-2.3-0.3-2.9 1.5-1.7 0.6-1.1 0.4-1.7 0.1-1.2-0.2-3.5 0.1-2.9 1.1-3 2.3-3 2.7-2.2 2.3-0.9 0.9-1.2 0.6-2.6v-2.7l-0.3-1.2-1-0.6 0.4-1.6 1.9-3.2 2.4-2.6 5.6-2.1 0.9-3.9 2.4 2.3 9.1 0.9 2.4 1.7 1.8 4 3.5 9.6-0.1 1.2 0.1 2h-1.2v1.5l1 1 1.2 0.5 1.1-0.3 1.1-1.2-0.6-0.2-1.4-1.3 3.3-2.5 11.4-3.2 1.8 1-1.4 0.5-1.4 1-1.3 1.7 1.2 0.8 1.6 3.2 0.7-0.3 1.8-4.5 1.1-1.8 1.1-0.5 2.5 2.5 1.9 4 2 3.3 2.9 0.8v-1.4l-2.9-2.2-1.4-1.6-1-1.6-0.7-2.9v-2.2l-0.4-1.8-1.6-1.6 4.1-3 6.1-2.1 3.8-2.4h2.1l-8 4.7-2.5 2.8 7.9-3.2 1.9 0.1 2.2 2 3.5 5.4 2.4 0.4v-1.7l-3.2-3.3-1.6-2.5-0.7-2.5 0.3-3.4 1-2.9 1.3-2.2 1.6-1.5-0.1-1.4 0.3-1 0.8-1.8 0.6-2.2 0.3-2.1-0.2-3.4-0.7-1.9-0.8-1.5-1.5-3.4-0.9-1.3-0.6-0.1-0.5-0.9-0.2-3.9-0.2-1.3-2.5-2-0.6-1.8 0.7-4h-1.3l1.3-3.2-0.7-0.7-0.4-0.9-0.9-2.9h2v-1.6l-1.6-2.2-1.7-7.2-2.6-3 0.8-3.1 1.9-2.8 1.9-0.4 0.5 1.4 0.1 1.7 0.3 1.4 1 0.3 0.6-3.2 0.7-2.1 1.1-1 2.6-1.1 1.5 0.1v1.8l-0.5 2.5 0.3 2.1 0.8 1.6 1 0.7-0.4-3.2-0.3-1.3 1.4-0.5 2.7-2.3 0.8-0.4 1.4 1.2 1 1.7 1 1.4 1.6 0.3-1.3 1.4-0.5 0.3 1.5 1.4 1.7-0.3 2.3-1.1v-1.7l1-1.6 0.9-2.2 1.1-1.4 0.8 3.2 1 0.4 1-1.3 0.8-4.3 0.7-1.1 2-1h2.5l5.2 2.3 1-0.6 4.2-1.8 7.6 7.7 4.3 1.7-1.2 2.1-1.4 0.9-1.2 1.4-0.5 3.5h1.2v1.4l-1.8 1.7 0.4 0.6 1.4 2.5-1.1 2 1.3 0.4 3.2-0.9 3.7 0.9 1.5-0.9-0.5 4.7h8.6l1.7 0.6 1.4 1.6 0.9 2-0.2 3.5 1.8 6.2-3.8 7.1-2.1 2.9-2.8 2.3 1.3 3.2 1.1-1.3 1.1 0.7 1.2 1.4 3 1.3 0.3 1.6-0.4 2.4-0.7 3.1 1.4 1.2 6.6 0.3 3.2-1.5 1.1 0.3 1.3 2.6 1-0.4 0.8-1 0.2 2.4 0.6 2 0.9 1.4 2.6 1.2 2.7 3 2.9 2.4 1.7 3 1.8 2 2.2-2-0.8-0.3-0.5-1.3 1.6-1.2 1.1-2.5 0.8-3.5 0.2-4.4-0.3-4.5-0.4-3.2 0.6-2.2 2.6-1.5h11.1l6.4-2.3 0.5-1.7 0.1-2.1 0.5-1.7 6.4-4.2 1-2.7 0.6-3.5 1.5-2.7 3.6-3.7 2.4-1.8 7.7-1.4 2.2 0.6 3.4 3 2.2 1 17.2-3-4.3 4.8-16 7.4-7.2 5.6-8.3 2.1-2.8 2.4-2.2 3.9 2.2 0.8 1.1 1.2 0.5 1.8 0.4 0.4 2 4 1 2.2-0.4 2.7-1.1 3.7-0.8 1.7-8.6 8.5-1.6 0.7-5.5 0.4-2.4 2.1-1.7 5 2.8 2.2 1.4 0.6 5.3 0.4 1.2 1.7 0.5 4.2-1 0.7-1.6 1.8-1.1 0.7 1.9 1.5 10.2 0.3 5.8 2.8 4.1-0.4 7.5-6.8 4.6-0.6 2 1.1 1.8 2.1 1.3 3.4 0.5 5 0.5 2.6 1.3 0.9 1.3 0.3 0.6 0.8 0.2 2.6zm-304.4-124.3-1.7 1.3-1.6-2.6-0.2-3.8 1-0.6 2.2 3.1 0.7 0.5-0.4 2.1z" name="Norðurland eystra"/>
 <path id="Southern" d="m219.4 547.3 8 8.7 9.6-0.5 11.7-0.7 13.4 1.5-21.9 24.8-1.6 2.7-1.8 3.8-2.5 0.9-3.7 0.2-1.2-0.1-4.7 1.5-24.5-5.6-1.9 1.4-1.6 2.5-1.7 1.7-1.9-1.4 1.3-1.4h-2.2l-3.4 2.2-2.9 1-1.7 1.7-1 0.7-1 0.2-8.7-1-2 0.8-1.5 2.3-0.7 0.4-1.1-0.6-1.4-2.7-1-0.7 0.6-2.1 1.2-2.7 0.1-2.3-0.3-2.2-0.8-1-1-0.9-1-1.6 1.4-2.1 1.8-7.5 0.8-1.7h4l0.6-0.7-0.3-2.1h-1l-2 1.4-1.8-0.4-1.9-1.5-1.5-2.6-0.7-3.9 1.4-4 0.4-1.7 0.1-2.3-0.2-7.9 0.5-1.8 1-1.4 1.1-0.8 1.3 0.5 2.8 3.1 3.1 2.2 2.5 3.7 2.2 5 1.2 5.4h-1.3l1.5 2.2 2.2 0.7 8.8 0.4 2.2-0.5 1.4-1.4-1-1.5 0.5-1.7 1.3-1.5 1.1-1 1.3-0.6 4.3-0.8 3.3-2.5 1-0.4 1.1 0.4 2.4 2.1 1.2 0.4 2.3-0.8 4.4-3.9z" name="Suðurnes"/>
 <path id="South" d="m357 700-1.3-0.3-0.4-0.8 0.9-2h1.3l0.1 2.3-0.6 0.8zm30.1-23-0.9 1.3-0.6-0.7-0.5-1.8-0.5-1.6-0.7-2.3 0.3-2.3 1.8-0.9 2.1-0.2-0.3 1.4 0.4 0.7 0.5 2.3-0.7 2.2-0.9 1.9zm228.5-59.7-0.6 2.3-0.9 0.3-0.1-1.1-0.7-0.6-1 0.1-4 1.4 0.3-1.7 2.7-2.8 1.6-1 0.6-0.2 1.3 0.3 0.7 1.3 0.1 1.7zm78.3-159.2-42 90.1-3.3 12.6-0.5 4.1-0.4 35.8 0.2 2.3-7.4 2.5-8.4 2.1 1-1.5 0.5-1.8v-2.2l-0.5-2.1-0.7 3-1.1 1.9-1.3 0.6-1.3-1.4 0.3 2.1 0.4 0.7v1.5l-11.8 8.4 0.9-4.5 2.3-2.5 2.9-1.1 2.6-0.3v-1.5l-6-3.1-2.1-2.5-0.5 2.8 0.5 2.8-2.4 1.6-2.2-0.4-2.3-1.1-2.4-0.1 1.8 1.5v1.3h-2.2l-1.1 0.4-0.9 1.1-1.5-0.8-1.6 1.2-1.4 2.3-0.5 2.2-0.5 3.6-1.2 2.5-1.6 0.7-1.7-1.9-1.2 1.7-0.4 1.8 0.4 1.5 1.5 0.6 1.2-0.5 1.8-1.9 1.3-0.4 7.2 0.8 2.4-0.8-3.9 7.6-2.3 2.1-2.4-1.4 0.6-1.2h-3.7l0.1 1.9-2.5-0.3-0.2 1 0.8 0.6 0.3 1.4-0.3 2.3 6.7-0.4 1.3-1.1-2.3 6.9-3.2 6.3-4.2 4.6-9.2 4.2-6 4.5-5.6 1.4-3-4.2 1.2-1.5 2.5-0.9 1-1.1 1.2-2.2 1.1-1 2.9-0.2v-1.4l-2.6-0.1-4.8 1.6-2.5-0.1-6.1-3.9-1.9-0.4 0.6 1.5-0.7 0.3-0.6 1.1 0.9 1.2 1.9 3.5 1.5 2 0.5 2.9 0.2 2.8 0.3 1.3 3.8 0.3h2.1l1.6 0.3-19.4 2.9-11.2 5.4-19 5.2-4.6-0.1-17.4-5.4-7.3 2-1.6-0.9 0.8-1.1-3.2-0.8-1.6-0.9-1.3-1.2-1.9 2.6-12.1-2.6-1.2-0.6-4.7-3.6-7.4-1.5-10.6-7.2-14.5-3.9-2.9-2.6 1.3-0.2 0.6-0.8v-1l-1.2-0.9-1.1-0.1-1.5 1.3-1.1 0.3-8.7-1.5 0.3 1 9 1.9-23.8-1.7-1.6-2.5-1.2 1.3-0.4-0.9-0.9-0.4 0.6 2.8-6.9 0.2-3.4-0.9-13.7-11.6h1.4l1.4-0.4 1.4-1.3-1.1-0.2-2.1-1-1.1-0.2 0.6-4-1.7 2.4-1.5 1-1.6-0.4-2-1.8v-1.2l3.1 1.2-1.2-3.1-1.7-1.8-1.8-1.4-1.6-2-1.4-3.5-0.8-2.4-1.1-1.3-2.2 0.2v1.3l3.1 4.5 1.9 3.4 1.2 3.3-6-5.5-2.8-3.6-1.7-4.8 1.2-1.5-0.6-1-1.3-3.2 2.6-2.9 2.8-1.7 6.1-1 2.9 1.4 5 5.3 3 0.4-1.5-1.9-2.2-3.9-1.3-1.3-6.9-4.1 2.8-5.1 0.4-2-0.4-2.9-1-0.7-0.8 0.7 0.3 1.6v1.3l-1.1 2-3.9 5.1-2.5 3-1.7 1.8-2.2 0.7-0.7 0.8-0.1 2v2.3l-0.2 2-0.7 2-0.4 0.4-4.1-2.3-4-3.5-3-1.4-6.4-5.1h5.9l1.1 0.6 2.2 2.1 1.3 0.1 0.2-1.2 1.2-0.3 3 0.1v-1.4h-2.5v-1.4h1.3v-1.3l-6.4 1.7-2.3-0.4v-1.3l3.1-4 0.9-6.2-1.3-5.3-3.4-1.3v1.3l2.6 1.1-0.3 2.8-1.7 3.3-3.4 4.6-2.2 1.7-2.4 0.6-2.5-1.5 1.3 4.2-3.6-3.9-8.2-5.5-11.5-4.4-4-2.8-2.2-1.1-2.1-1.6-1.9-3.2 0.5-1.6-0.1-2.1-0.9-4.8 7 0.5 3.9-0.9 2.6-2.4h-6.8l-4.3-2.4-1.5-0.4-4.7 1.3-1 0.8-0.8 1.3-2.8 3.1-1 0.7v1.3l4.6 2 2.3 2 1.2 3.1-1.9-1-4.1-0.7-4.2 0.5-2.5 1.1-1.5 2.1 1.2 3.6-0.4 0.1-0.9 1.3-26.5 3.6-3.2-2.2-3-3.2-2.8-2.1-3-0.4-12.6 4.6 1.8-3.8 1.6-2.7 21.9-24.8 3.5 0.2 0.7-0.6 0.6-3.3 0.5-1.2 2.2-2.5 2.1-3.3 3.8-7.3 7.8-15.7 0.8-2.3 0.7-2.9-1.2-5.2-0.3-1.4 0.1-1.4 0.3-1.3 1.3-3.3 1-1.9 21.6-22.2 6.4-8.3 13.4-12.6 10.5-12.6 2.2-1.6 14.6-5.3 28.4-18.4 24.3-11.5 2.6-2.6 1.4-2 0.8-2.2 0.2-1.7-0.1-2.5-0.2-3.2 0.1-2.7 1.4-5 23.2 10.4 2.2 0.5 2.6-0.2 23.7-7.2 22.6 0.1 25.7-11.5 40.2-9 8.4 8 9 5.5 25.9 15.1 45.6 27 51.2 30.9z" name="Suðurland"/>
 <path id="Capital" d="m307.6 480.7-21.6 22.2-1 1.9-1.3 3.3-0.3 1.3-0.1 1.4 0.3 1.4 1.2 5.2-0.7 2.9-0.8 2.3-7.8 15.7-3.8 7.3-2.1 3.3-2.2 2.5-0.5 1.2-0.6 3.3-0.7 0.6-3.5-0.2-13.4-1.5-11.7 0.7 8.4-8.9 16.4-7.1 4.5-21.7-0.9-14.8-10.9-3.8-12.6 0.4 3.8-2.8 2.8-3.1 1.9-3.5 1.6-4.3 0.9-1.3 1.5-0.9 2-0.5 4 0.6-0.1-0.8-0.8-0.7h-0.7l3.6-3.1 2-1 2.2-0.4 12.4 3.4 2.1-0.5 1.5-2.5 5.7-1.9 8.4-0.4 3.6-2.3 1.1-0.2 4.1 0.7 0.8 0.5 1.3 1 0.5 1.5-0.2 0.8-0.3 2.8z" name="Höfuðborgarsvæði"/>
 <path id="West" d="m200.2 445.6 0.6 0.3-0.6 1.4-1.3 0.5-1 1.5-0.4-0.6-0.1-1.6-0.4-0.5 0.6-1 0.9-1h1.4l0.3 1zm-7.6-44.2 1.4 1.7 1.4-0.5 0.4 0.1 0.1 1.4-0.6 0.3-1-0.3-1.2-0.8-1.5-1.8-1.7-2.5-0.8-1.1-0.4-2.2 3.9 5.7zm-1.4-73 0.1 1-5.4 1-1-0.3-1.2 1.7-0.2-0.4 0.4-1.4v-1.4l1 0.5 4-1.4 2.3 0.7zm-13.8-8.5 0.4 0.4-0.2 2.2-2 1.3-0.6-0.4 1.3-0.7-1.5-2.6 0.7-0.1 1-1.1 0.9 1zm-11.5-1 1.3 0.7-1.1 0.3-0.2-1zm16.2-2.1-0.2 0.9-1 1.4-0.9 0.1-0.1 0.8-0.6 0.1-1-1.3v-1.3l1.1 0.7 0.9-0.5 1.8-0.9zm-10.8-2.7-2.2 1.5v-1.3l0.9-1.1 0.1-0.5 1.2 0.1v1.3zm1.6-2.7-1.9 0.5-0.3-0.8 0.9-1.7 3.3-2.8 0.7 0.3-0.1 0.6-1.2 0.4-0.4 0.7-1.3 1.1-0.2 0.6 0.5 1.1zm149.6 40.7 0.8 2.2 7.8 5.2 1.3 0.4 7.5 0.6 1 0.4 3.4 3.5 1.5 0.2 29-8.8 1.3 0.1 4.3 2.3 21.6 0.5 26.7 1.2 0.8 0.4 0.7 2.1v2.9l-0.6 1.9-0.8 1.5-10.4 11.4-4.8 8.4-1.4 5-0.1 2.7 0.2 3.2 0.1 2.5-0.2 1.7-0.8 2.2-1.4 2-2.6 2.6-24.3 11.5-28.4 18.4-14.6 5.3-2.2 1.6-10.5 12.6-13.4 12.6-6.4 8.3 0.3-2.8 0.2-0.8-0.5-1.5-1.3-1-0.8-0.5-4.1-0.7-1.1 0.2-3.6 2.3-8.4 0.4-5.7 1.9 1-1.7-4 2.4-2.2-1.1v-1.3l1.6-0.2 1.4-1.2v-1.4l-16.4-1.1-7.7 1.9-6.8 6.2-1.1 3.3-0.8 1.1-0.8 0.6-1.7 0.6-0.9 0.1-1.4 0.6-4.1 3-1.3 1.6-3.4 3-4.2-0.5-8.2-3.1v-1.6l3.8-2.3 3.6-3.4 3-4.3 2-1.2 1.9 1.2 1.7-1.8 4-1.3 1.8-1.2-8.1-0.9-2.5 0.9-1.7 1.2-1.5 0.5-1.3-1.1-1.7-3.6 1.2-1.9 0.2-2.6v-2.9l0.7-3.3 0.6-0.2 0.8 0.6 0.6 0.1 0.4-3.7 0.5-1.6 1.2-3 0.1-2.2 2.3-2.1 10.2-5.3 5.4-0.5-0.5-1.9-0.8-1.1-1.2-0.3-1.2 0.3v-1.4l1.6-1.5 3.5-4.8 3-1.4 1.5-1.8 0.8-0.7 1.3-0.2 3.7 0.2-0.3 3.8 1.8 0.6 2.3 0.1 1.2 2.1 1.2 1.6 7.5 0.5-1.5-1.2-3.2 0.3-1.5-0.4-1.4-1.5-1.9-3.2-1.7-1.1 3.7-1.6v-1.3h-9.3v-1.6l5.2-3.2 1.6-1.7 1.5-0.4 7.2 1.2v-1.6l-7-1.5h-2.3l-5.8 5.5-2.3 0.3v-1.4l2.4-2.3 0.9-1.6 0.5-2-3.6 3.9-1 0.7-0.9 1.1-0.6 4.8-1.1 1.1-0.9 0.6-3.7 3.8-4.7 1.8-1.4 1.2 0.5 2.8-2.7-0.9-2.5 0.7-5.3 4.6-2.1 2.6-1.4 0.8-1.5-0.6-1-2 0.2-2.1 1.4-4.6-1.8 0.6-0.9 2.3-0.3 3.3v3.2l-0.3 1-2.2 4.1-0.4 1.9-0.1 2.7-0.8 1.2h-3.2l-0.8 1.5-0.8 0.7-1.6 0.6-1.5-0.7-1.6-1.9-1.4-2.7-0.8-3.3-1.5 2-1.6 0.8 1.3-2.6 1.1-3.3 0.3-3.2-0.9-2.3 1.3-1.5-1.5-1.3-1.6-0.2 1.3-2.9v-1.3l-4.2 3.1-2.6 1.2-1.9-0.1-1.7-2.6-0.6-3.5 0.3-3.3 1.3-2.2v-1.3l-1.6-0.3-1.1-1.5-1.3-2.6-1.2-0.6-1.3-1.6-1.2-1.9-0.9-1.8 2.2 1 2.4 2.4 2.4 1.4 2.3-1.8h-1.9l0.5-2.4 0.9-1.6 1-1 1.3-0.8-1.3-1.4v-1.5l10.5-5.3 2.6-3.4v-1.4l-5.6 4.9-3 1.6-2.9 0.6-2.5 1.6-2.7 3-2.6 1.8-1.8-1.9 1.2-0.9 2.5-3.6 1.8-1.9 1.1-1.6 0.9-2.2-0.7-1.4 0.8-0.4 1.7-2.5-2.1-2.4-2.7-0.8-5.8 0.3 1.3-2.9h-1.8l0.6-2.2 1.7-4.1 0.7-2.5-0.9 0.2-0.8 0.9-0.7 1.4-0.6 1.8-0.6-2-0.8-0.8-0.8 0.3-0.9 1.1v1.4l-5-1.4-1.4 0.7-2.7 3-1.5 0.6v1.6l0.7 0.2 1.8 1.2-8.3 1.7-2.2-1.7 2.1 0.4 1.1-0.2 0.8-0.9-0.3-1.2-0.9-1.7-1.1-1.6-0.8-0.7h-9.6l1.4 1.6 4.8 2.9v1.4h-2.5l-4.2-3.8-2-0.5-11.3-1.1h-10.8l-12.5-0.9-5.2-5.6-5-0.3-8.8 2v0.6l-1.6 2.8-1.6 1.8-1 0.7-1.1 0.3-10.5-3.3 1-0.9 1-0.6-0.4-0.8-3.4 1.9-2.7 3.5-0.4 4.2-1.7 5-2.5 2.1-6.7 0.2-1.9 0.5-4 2.3-1.8 0.2-6.6-3.8-1.4-2-1.3-0.6-0.9-1-0.4-3.6-0.5-1.9-3.9-6.2-1.6-3.3-1.4-3.6-2.5-9.1 0.6-1.6 1.8 1.9 1.7-0.8 3.4-4 1.7-1.1 9.8-2.8 1.9 0.2 7.3 4.8 10 1.8 0.8-0.5 1.7-2.7 0.8-1 3.8 0.2 0.9-0.9 3.3-5.3 3.7-1.3 8.2 1.5v-1.6l-0.5-0.6-0.8-2.4 3.8-0.2 1.2 1.1-0.6 3.7 1.2 0.9 0.7-1.2 0.8-1.4 1 0.1 0.3 2v3l0.5 1.6 1.6-2.2 1.5 1.3 1.6-0.8 1.3-2 0.6-2.1-0.4-2.2-0.6-2.8-0.5-3.1 0.3-3 2.4-3.4 3.8-0.7 7.4 1.2-0.7 2.5-1.1 1.6-2.6 1.9 0.7 2.9-1.1 0.3-0.7 0.8-1.4 3.2 5 7.4-0.5-3.2-0.1-2.7 0.4-2.3 0.9-2.2 0.6-0.4 1.7-0.4 0.7-0.5 0.6-1.2 0.6-2.7 0.4-1.3 2.5-3.3 2.6-0.3 2.4 2.1 2.1 3.8 1.4-2.2 1.9-1.4 5.6-1.4 5.4-3.8-1.5-0.9-6.6 0.9v-1.6l3.8-0.8 6.8-7.1 3.6-0.9-1.2 1.5 1.6 0.5 1.5 1-0.1 1.9 0.1 0.9-1.2 1.8-2.8 1.6-0.9 1.2 1.1 0.4 1.6-0.1 1.5-0.7 1.3-1.2 0.6 4.2 0.8 1.7 3 1.4 4 3.8 1.5 0.6v-1.3l-1.1-0.7-1-1.3-2.2-4 2.4-3.3 1.4-1 1.8-0.1 0.2-2.8 1.6-0.8 7.6 0.3 7.4-1.8 12.2 2.5 8.1 4.2 1-0.5 1.3-2 0.9-0.5h6.8l1.8 0.8 1.9 1.5 1.9 0.7 1.8-1.6 2.3 1.6 10.1-1.6 2.4-2 0.1-2.7-1.6-2.1-2.8-0.5 0.9-2.8 1.1-1 1.3-0.5 1.7-1.6 1.1-2.4 3.8-11 0.3-7.5-2.9-3.1-3.9 0.4-2.8 2.9v1.5h0.7v1.6l-13.7 11.8-4.5 1.9-25.8-5.1-6.5-5.3-0.9-0.5-1.8 1.1-8.2 1.3-2.4-1-1.8-2.1 1.4-1 2.7-0.8 2-1.9 0.7 1.1 0.7 0.5h1.7v-1.6l-2-1.5-2.3-0.2-4.4 1.7 0.9-3.2 1.7-3.1 3-4 4.2-2 1.6-1.9-0.2-3.5 1.3-0.6 3.3 0.6 0.8-0.8 2.7-5.2 2.4-1.9 10.1-2.9 8.5-6.6 3.3-4.2 5.7-3 2.1-2.3-0.6-0.4 0.1-0.9 1.3 0.1 2.2 2.5 1.4 0.2-0.8-3.4-0.4-1.1 5.6-3.3 11.7-3.7 5.6-3.4 1.6-1.4 2.2-5.6 1.1-1.8 2.4-1.7 1 2.9 0.1 6.5-0.3 2.5-0.5 3.4 0.3 2.2-0.2 0.9-0.7 0.9-2.2 2-1 1.8-0.3 1.5 0.2 1.3 0.6 1.2 2.7 3.3 7.8-2.2h3.3l1 0.6 0.7 1.3 1.6 4.8 5.3 10.9 2.5 3.2 0.7 1.6 0.6 0.8 2.1 1.3 4.7 5.8 0.6 1.5 0.8 3 1.7 5.7 0.2 1.7-0.1 1.5-0.6 1.6-2.3 4.8-0.6 2-0.3 2.5 0.3 3.6 1.4 4.9 0.6 2 0.6 1.1 1.6 1.5 0.9 1 1.6 2.8 1.6 1.7 0.4 1.7-0.1 2.2 7 6.2 2.7 1.6 3 1.1 6 0.2z" name="Vesturland"/>
 <circle cx="587.2" cy="599.4"/>
 <circle cx="648.1" cy="133.4"/>
 <circle cx="218.2" cy="224.9"/>
 <g fill="#050">
  <ellipse id="East_Capital" cx="886.51" cy="312.78" rx="9.5323" ry="8.9366"/>
  <ellipse id="Northeast_Capital" cx="585.1" cy="205.8" rx="9.5323" ry="8.9366"/>
  <ellipse id="Northwest_Capital" cx="451.5" cy="186.8" rx="9.5323" ry="8.9366"/>
  <ellipse id="Westfjords_Capital" cx="130.5" cy="111" rx="9.5323" ry="8.9366"/>
  <ellipse id="West_Capital" cx="238.9" cy="487.34" rx="9.5323" ry="8.9366"/>
  <ellipse id="Reykjavik_Capital" cx="244.27" cy="527.26" rx="9.5323" ry="8.9366"/>
  <ellipse id="Southern_Capital" cx="197.8" cy="560.62" rx="9.5323" ry="8.9366"/>
  <ellipse id="South_Capital" cx="334.49" cy="560.29" rx="9.5323" ry="8.9366"/>
 </g>
 <g fill="#fff" stroke="#000" stroke-linecap="butt" stroke-linejoin="miter">
  <path d="m709.82 523.52c-0.95397-2.6869-2.7192-7.2467-4.5202-8.919-0.13317-0.12366-0.43185 0.12366-0.56503 0-0.0797-0.074-0.0579-1.4663 0-1.574 1.1606-2.1554 4.9482-1.7726 6.7804-2.6232 0.16845-0.0782-0.13318-0.40099 0-0.52465 0.23677-0.21985 1.3526-0.36567 1.6951-0.52465 0.95836-0.44494 1.2452-1.7878 1.6951-2.6232 0.71094-1.3202 2.4393-1.2157 2.8252-1.574 0.13318-0.12365-0.13318-0.40098 0-0.52464 0.26635-0.24732 0.77271 0.1106 1.13 0 0.39955-0.12366 0.73053-0.40099 1.1301-0.52465 0.35736-0.1106 0.8637 0.24732 1.1301 0 0.13318-0.12366-0.17868-0.46934 0-0.52465 0.83013-0.25693 3.2778 0.10432 3.9552-0.52464 0.13318-0.12367-0.13318-0.40099 0-0.52465 0.28252-0.26233 1.4126 0.26232 1.6951 0 0.33109-0.30744 1.5822-2.7285 1.6951-3.1479 0.86089-3.1974-1.7242-4.8841-2.2601-7.8697-0.91533-5.0995 2.0444-8.3022 5.0853-12.067 0.25268-0.31284 0.23616-0.80501 0.56502-1.0493 0.65773-0.48857 1.5593-0.61546 2.2601-1.0493 4.0105-2.4826 10.767-4.8094 12.431-9.4437 0.0881-0.24542 0.96893-4.0097 0.56503-4.1972-0.54356-0.25236-4.4918-0.27552-5.0853 0-0.66836 0.3103-1.3168 1.7474-1.6951 2.0986-0.75959 0.7053-5.0279 3.3303-5.6503 4.1972-0.20895 0.29103 0.11912 0.71749 0 1.0493-0.18208 0.50716-5.8427 5.0724-6.7804 5.2465-2.7138 0.50397-10.224 0.95358-12.996 0.52464-3.0874-0.47778-5.847-1.5739-9.0405-1.5739-0.48606 0-3.0984-0.27097-3.3902 0-0.98817 0.91755 0.18482 3.5009-0.56503 4.1972-0.13317 0.12366-0.50547-0.16591-0.56503 0-0.47086 1.3116 0.3139 1.4574 0 2.6232-0.73208 2.719-1.5809 5.6651-3.3902 7.3451-0.45162 0.41934-3.2891 0-3.9552 0-1.6078 0-1.9728-5.9001-3.9552-6.8204-2.8041-1.3018-5.9485-0.26717-8.4754-1.0493-3.8156-1.181-7.3607-3.682-10.736-5.7711-0.67653-0.41879-3.8948-1.3243-4.5202-2.0986-2.3293-2.8838-0.0501-6.4352-1.1301-9.4437-0.65447-1.8231-3.6017-2.7326-5.6503-2.0986-0.50537 0.15643-0.62468 0.89288-1.13 1.0493-1.3427 0.41558-1.0262-0.62107-2.2601 0.52464-3.5693 3.3142-2.1567 9.586-5.6503 13.641-2.4084 2.7953-9.4951 1.4714-11.866 3.6725-1.3881 1.2889-1.9446 6.4848-3.3902 6.8204-2.6698 0.61976-10.672-1.1087-12.431 0.52466-0.61771 0.57354 0 4.525 0 5.2465 0 2.0732 0.67707 7.872 0 9.4437 0.31324 1.2994-1.274 1.3165-1.6951 2.0986-0.26636 0.49465-0.2586 1.0997-0.56503 1.574-1.5797 2.4446-6.8052 2.6232-9.6055 2.6232-1.0721 0-2.881 0.24936-3.9552 0-1.9919-0.46239-1.9619-1.812-2.8252-3.1479-3.1533-4.8799 1.1324 3.6769-2.2601-2.6232-0.89499-1.6621-1.9876-4.5245-2.2601-6.2958-0.21309-1.385 0.21308-2.8122 0-4.1972-0.62844-4.0846-0.70709-7.5767-2.2601-11.542-0.96715-2.4696-2.4965-4.8556-3.3902-7.3451-0.11912-0.33182 0.19381-0.74938 0-1.0493-2.6252-4.0626-0.64714-0.0763-2.8251-2.0986-0.13319-0.12366 0.1567-0.42764 0-0.52464-1.9422-1.2023-2.6829 0.13212-4.5202-1.574-0.48019-0.44587-0.64988-1.1281-1.1301-1.5739-0.13318-0.12367-0.46055 0.1455-0.56503 0-1.8728-2.6085-0.859-7.9323 0.56503-11.018 0.2675-0.57957 0.91532-0.97575 1.1301-1.574 0.83133-2.3157-0.0508-7.0563-0.56503-9.4436-0.72984-3.3884 0.77577-6.6786 1.1301-9.9683 0.24561-2.2806-0.16659-7.1904 1.6951-8.919 0.13318-0.12365 0.43186 0.12367 0.56503 0 0.2978-0.27651 0.21461-0.83238 0.56503-1.0493 0.87927-0.54428 3.52-0.0602 4.5202-0.52465 3.0086-1.3968 12.51-2.2454 14.126-5.2465 2.098-3.8962-4.6758-9.8239-0.56503-13.641 0.50157-0.46573 2.6913-0.20019 3.3902-0.52465 2.9734-1.3805 7.12-1.8358 10.171 0.52465 0.61387 0.47499 1.0302 1.1624 1.6951 1.5739 1.4889 0.92166 6.3474 1.2503 7.9104 0.52465 0.95262-0.44227 2.1476 0.10453 2.8252-0.52465 0.35127-0.32617 0.0523-4.2357 0-4.7218-0.48936-4.5438-6.3848-16.107-2.2601-19.937 0.48018-0.44587 1.1648-0.6554 1.6951-1.0493 1.7473-1.2979 2.215-2.8163 4.5202-3.6725 5.6701-2.1059 12.397-1.0555 18.081 0 1.2928 0.24008 2.6624-0.24009 3.9552 0 0.26119 0.0485 0.30385 0.47614 0.56503 0.52464 3.9782 0.73879 8.9625 0 12.996 0 3.0778 0 6.6726 1.3616 9.6055 0 0.71472-0.33181 1.0558-1.1288 1.6951-1.5739 1.1698-0.81464 2.8357-1.2323 3.9552-2.0986 1.637-1.2666 2.9166-2.8943 4.5202-4.1972 0.93966-0.76345 3.1981-1.9763 3.9552-3.1479 1.3284-2.0558 2.7052-6.1844 4.5202-7.8697 1.4801-1.3743 3.3389-2.3752 5.0853-3.6725 0.83197-0.618 1.4078-1.505 2.2601-2.0986 3.4329-2.3906 8.0813-2.6232 12.431-2.6232 1.0405 0 7.8281-0.40072 8.4754 0 2.9843 1.8473 6.7757 4.0166 9.0405 6.8204 0.25268 0.31284 0.26723 0.77279 0.56503 1.0493 0.78287 0.72693 1.7041 1.066 2.2601 2.0986 0.86524 1.6068-0.374 6.3107 0 8.3944 0.2192 1.2212 1.6014 1.7058 2.2601 2.6232 0.33037 0.46015 0.23465 1.1138 0.56503 1.5739 3.5002 4.8751 0.18595-0.35199 2.8252 2.0986 0.69201 0.64255 0.79305 1.5402 1.6951 2.0986 0.35042 0.21691 0.87737 0.2118 1.1301 0.52464 1.7001 2.1048-0.72065 1.1279 1.6951 2.6232 1.5138 0.93708 3.9616 2.4759 5.6503 3.1479 4.8582 1.9333 8.4779 0.87288 12.431-1.5739 1.3346-0.82614 0.69346-1.8076 2.2601-2.0986 1.5949-0.29619 4.0808 0 5.6503 0 1.0457 0 3.0162-0.29062 3.9552 0 0.78469 0.24286 1.4028 7.0737 2.2601 7.8697 1.5188 1.4103 4.3236 2.1327 5.6503 3.6725 0.52618 0.61072 0.483 1.5979 1.1301 2.0986 0.59658 0.46161 1.5234 0.29663 2.2601 0.52465 4.2829 1.3256 7.8153 2.1096 12.431 1.5739 4.186-0.48584 12.503-6.7733 15.256-9.9683 1.5775-1.831 4.205-4.5632 6.7804-5.2465 6.0386-1.602 12.45-3.0123 18.646-1.574 0.36545 0.0848 0.79315-0.15642 1.1301 0 1.384 0.64254 0.9265 1.147 1.6951 2.0986 2.2818 2.825 5.7732 5.7874 9.6055 6.2958 6.8242 0.90521 12.639-1.2821 18.646-3.6725 0.62418-0.24838 1.0509-0.8499 1.6951-1.0493 0.53603-0.16591 1.141 0.10289 1.6951 0 2.2536-0.41849 5.1918-1.2416 7.3454-2.0986 0.83003-0.33031 3.9689-2.7897 5.0853-2.0986 2.5475 1.577 3.6435 4.4324 5.6503 6.2958 0.13318 0.12365 0.43186-0.12366 0.56503 0 0.52237 0.48503 0 2.8028 0 3.6725 0 1.1865 0.46941 3.6322 0 4.7218-0.3828 0.88862-6.0591 6.7479-7.3454 7.3451-1.7972 0.83439-4.0036 1.4765-5.6503 2.6232-1.644 1.1449-2.6004 2.9392-3.9552 4.1972-0.6882 0.63901-1.2624 0.24576-1.6951 1.0493-2.223 4.1282 4.7672 6.7549-3.3902 8.919-3.6359 0.96459-21.855-0.45477-23.166 1.5739-0.6783 1.0497 0 2.4484 0 3.6725 0 0.69954-0.23823 1.435 0 2.0986 0.16847 0.46926 0.81044 0.65358 1.1301 1.0493 0.75477 0.93445 7.9104 11.809 7.9104 12.067 0 0.69953-1.5068 0-2.2601 0h-4.5202c-4.7343 0-10.259-2.0164-14.126 1.5739-0.64752 0.60124-1.0476 2.022-1.6951 2.6232-0.78287 0.72693-1.7041 1.066-2.2601 2.0986-0.25269 0.46926 0.13704 1.065 0 1.574-0.26364 0.97918-1.1544 2.9195-1.6951 3.6725-0.44324 0.61735-1.3377 0.91032-1.6951 1.5739-0.33692 0.62568 0 1.3991 0 2.0986 0 4.7012 2.266 5.8982-2.8252 9.4437-4.2754 2.9774-9.3383 1.3577-14.126 2.0986-1.106 0.17117-2.3129 0.71588-3.3902 1.0493-1.4808 0.45832-7.9135 0.22445-9.6055 0-1.4411-0.19116-2.9762-0.88308-4.5202-0.52465-3.2779 0.76091-2.0227 2.859-2.8252 4.7218-0.25221 0.58544-0.91532 0.97575-1.1301 1.5739-0.56853 1.5837-0.52188 3.5523-1.1301 5.2465-0.37478 1.044 0.52567 2.6963 0 3.6725-0.86338 1.6034-2.0205 2.9254-3.3902 4.1972-0.77656 0.72106-1.9676 0.93692-2.8251 1.5739-4.0256 2.9903 2.3922-1.131-2.8252 2.0986-11.332 7.015-5.1323-7.3305-11.866-5.2465-2.4918 0.77123-0.59642 0.0583-1.1301 1.0493-0.23824 0.44242-0.89183 0.60687-1.1301 1.0493-1.7531 3.2557 3.6423 10.905 4.5202 14.166 0.29451 1.0938 0 2.5383 0 3.6725 0 0.52465 0.2527 1.1047 0 1.5739-1.3383 2.4853-8.2906 3.4985-11.301 4.1972-1.0213 0.23708-2.4734-0.42562-3.3902 0-1.0899 0.50602-2.2678 0.3545-3.3902 1.0493-2.1282 1.3174-1.3875 2.6232-3.9552 2.6232-0.18834 0-0.4808 0.15643-0.56503 0-1.6628-3.0879 2.6179 1.3815-1.1301-2.0986-0.75042-0.69679-2.2601-2.1873-2.2601-3.1479 0-0.89808-1.8506-0.76048-2.2601 0-0.40882 0.7592-0.3461 1.8101-0.56503 2.6232-0.66426 2.4672-2.2834 4.83-2.8252 7.3451-0.29215 1.3564-0.98303 3.888-0.56502 5.2465 1.2807 4.1622 0.39552 0.8919 2.2601 2.6232 5.103 4.7383 0.0571 0.10612 1.1301 2.0986 1.5363 2.8529 1.4393 5.1623-1.6951 7.3451-0.45203 0.31479-1.1301 0-1.6951 0-5.752 0-6.8188-6.4221-11.301-8.919-0.32301-0.17995-0.76462 0.0848-1.1301 0-1.685-0.39113-9.2095-1.2332-10.736-0.52464-1.1634 0.54011-4.8305 1.1676-6.2153 0.52464-2.3515-1.0917 0.60404 0.0362-0.56504-1.0493-0.46963-0.43607-2.2386 0.32677-2.8251 0-0.80752-0.44988-1.5068-1.0493-2.2601-1.574z" stroke-width=".91388px"/>
  <g stroke-width="1px">
   <path d="m515.94 331.25c-4.5223 0.83467-8.2252 1.3251-9.5324 6.5535-0.67567 2.7027 1.1189 6.7714 0.59578 8.3408-0.17763 0.53288-0.68915 0.94035-1.1916 1.1916-1.5447 0.77233-2.7308 0.11589-4.1704 0.59577-2.1136 0.70454-6.9475 3.3728-8.3408 4.7662-2.3251 2.3251 0.13791 0.31996-0.59577 1.7873-1.1462 2.2923-0.50048 3.7652 0.59577 5.9577 0.71931 1.4386-0.26474 4.0378-0.59577 5.3619-0.96202 3.8481 1.2508 8.7589 0 12.511-0.0888 0.26644-0.47017 0.34457-0.59577 0.59577-0.46004 0.92009-1.2325 4.4068-0.59577 5.362 0.22031 0.33047 0.86107-0.22032 1.1915 0 0.36948 0.24632 0.19859 0.99295 0.59577 1.1915 2.149 1.0745 5.5636-0.88906 7.745 2.3831 0.73337 1.1001 2.0298 1.5655 2.3831 2.9789 0.54784 2.1914-0.71288 5.0106 0 7.1493 1.3461 4.0383 5.7867 9.2906 8.9366 11.915 0.86302 0.71918 1.4844 1.709 2.3831 2.3831 2.2343 1.6757 4.2235 1.3724 6.5535 0.59578 0.1884-0.0628 0.53297 0.1884 0.59577 0 0.3768-1.1304-0.19589-2.3993 0-3.5746 0.19339-1.1603 1.3098-6.1943 1.7873-7.1493 0.0954-0.1909 2.78-0.0497 2.9788 0 2.4954 0.62385 8.7523 3.7589 11.32 1.1915 0.314-0.314 0.28177-0.87754 0.59577-1.1915 0.72564-0.72564 1.3311-0.27907 1.7873-1.1915 0.82567-1.6514 2.1458-5.8366 1.1915-7.745-1.2921-2.5842-6.9498-0.79779-5.9577-4.7662 0.62993-2.5198 7.432-8.4479 9.5323-10.128 1.2764-1.0211 1.9222-2.518 2.9789-3.5746 1.4528-1.4528 4.8993-3.0488 5.3619-5.3619 0.74935-3.7467-2.4086-7.0728-1.1915-10.724 1.4121-4.2363 6.2786-7.9281 5.3619-12.511-0.16247-0.81236-8.0626-6.8553-9.5323-7.1493-0.58421-0.11684-1.2031 0.11685-1.7873 0-3.2305-0.64609-6.3542-3.2624-9.5323-4.1704-3.1711-0.90602-6.8343-1.1915-10.128-1.1915-1.4805 0-3.3391 0.35678-4.7662 0-1.0202-0.25504-2.6318-1.1915-3.5746-1.1915"/>
   <path d="m430.32 381.89c-1.1915 0.19859-2.3666 0.59577-3.5746 0.59577-1.1906 0-2.9737-0.89237-4.1704-1.1915-2.1272-0.53179-16.409-0.27218-17.277 0.59577-0.19859 0.19859-0.39718 1.5887-0.59577 1.7873-0.14042 0.14043-0.45534-0.14042-0.59577 0-0.19859 0.19859-0.39718 1.5887-0.59577 1.7873-1.2327 1.2327 0.0482-1.8837-1.1915 0.59577-0.17763 0.35525 0.28085 0.91069 0 1.1915-0.14043 0.14042-0.45535-0.14042-0.59578 0-0.28084 0.28085 0.17763 0.83629 0 1.1915-1.1523 2.3046-2.6332 4.8913-4.7662 5.9577-0.95323 0.47661-2.6214-0.47662-3.5746 0-1.1806 0.59032-1.0296 0.14459-2.3831 0.59577-0.57198 0.19066-1.0824 1.137-1.1915 1.1915-0.35525 0.17763-0.81475-0.1256-1.1916 0-0.72778 0.2426-4.319 2.5316-4.7662 2.9789-0.5617 0.5617 0 1.5887 0 2.3831 0 2.443-0.4893 0.87213-1.1915 2.9789-0.1256 0.3768 0.17762 0.8363 0 1.1915-1.8994 3.7989-6.0912 4.2149-9.5324 5.362-0.67928 0.22643-1.108 0.96511-1.7873 1.1915-1.6086 0.5362-3.7534-0.53619-5.3619 0-1.1455 0.38185-1.4499 2.8999-1.7873 3.5746-0.57411 1.1482-2.4185 1.2624-2.9788 2.3831-0.61449 1.229-1.1561 2.9079-1.7873 4.1704-0.49371 0.98741-1.7079 1.1121-2.3831 1.7873-1.5235 1.5235-2.2938 2.6364-4.1704 3.5746-1.1505 0.57525-1.2326 2.4036-2.3831 2.9789-0.5617 0.28085-1.2849 0.21897-1.7873 0.59577-1.0469 0.78519-1.1316 1.7573-2.3831 2.3831-0.35525 0.17763-0.83629-0.17762-1.1915 0-2.1887 1.0943-5.0506 1.8442-7.745 2.3831-0.77894 0.15579-1.6295-0.2512-2.3831 0-1.0798 0.35993-2.5591 1.2795-3.5746 1.7873-0.13969 0.0698-2.2616 3.3317-2.3831 3.5746-0.17763 0.35525 0.28085 0.9107 0 1.1916-0.14043 0.14042-0.45535-0.14043-0.59577 0-1.2446 1.2446 0.82262 6.0998 0 7.745-1.2325 2.465-0.48818 5.0392-1.1916 7.1493-0.0628 0.1884-0.53297-0.1884-0.59577 0-0.0365 0.10949-0.20114 3.9693 0 4.1704 1.7156 1.7156 9.9042-3.0908 12.511-1.7873 0.98933 0.49466 1.123 2.3488 2.3831 2.9788 0.35525 0.17763 0.91069-0.28084 1.1915 0 0.35227 0.35228 1.0832 2.031 1.7873 2.3831 0.17763 0.0888 0.45535-0.14042 0.59578 0 0.58122 0.58122-0.48816 1.0647 0.59577 1.7873 1.2379 0.82524 2.9522 1.3812 4.1704 1.7873 1.3851 0.4617 5.7538-0.40791 6.5535 1.1915 0.65509 1.3102 0 4.4794 0 5.9577 0 1.1966-0.19606 2.5188 0.59578 3.5746 0.26643 0.35525 0.9251 0.24052 1.1915 0.59577 0.3768 0.5024 0.31492 1.2256 0.59577 1.7873 0.84328 1.6866 5.3429 0.40985 5.9577 0 1.5124-1.0082 2.2504-2.5152 3.5746-3.5746 1.1633-0.93065 1.9647-0.17742 2.9789-1.1915 0.314-0.314 0.28177-0.87754 0.59577-1.1915 0.14043-0.14043 0.39718 0 0.59577 0 0.39718-0.19859 0.87755-0.28178 1.1916-0.59577 1.0261-1.0261 0.77137-3.5057 1.1915-4.7662 0.52977-1.5893 2.7506-3.1181 3.5746-4.7662 1.0936-2.1873 1.1434-6.5294 3.5746-7.745 0.63549-0.31774 1.7476 0.31775 2.3831 0 0.17763-0.0888-0.14042-0.45534 0-0.59577 0.3481-0.3481 4.7179 0 5.362 0 3.168 0 11.697 0.86713 14.299 0 0.53193-0.17731 3.2921-2.6021 3.5746-2.9789 0.76653-1.022 1.5709-4.0636 1.7873-5.3619 0.47536-2.8522-0.69942-6.1389 0-8.9366 0.58486-2.3394 1.425-7.0448 0.59578-9.5323-0.32183-0.96548-1.8473-2.8589-1.1916-4.1704 1.3548-2.7097 5.3391-2.3374 7.745-7.1493 2.4684-4.9368 0.80115-11.005 2.9789-16.086 0.96602-2.254 3.2048-2.609 4.7662-4.1704 0.314-0.314 0.28177-0.87754 0.59577-1.1915s0.92511-0.24053 1.1915-0.59578c0.3768-0.50239 0.21898-1.2849 0.59578-1.7873 0.26643-0.35525 0.87754-0.28177 1.1915-0.59577 0.0243-0.0243 3.5638-4.7391 3.5746-4.7662 0.71431-1.7858 0.065-3.174 0.59577-4.7662 0.0582-0.1745 1.0752-0.71211 0.59577-1.1916-2.4568-2.4568 1.7183 5.8196-2.3831-2.3831z"/>
   <path d="m483.17 570.15c0.52491-0.30749-1.3539-3.4123-0.59578-4.1704 0.14043-0.14042 0.45535 0.14043 0.59578 0 0.28085-0.28085-0.28085-0.91069 0-1.1915 0.4553-0.4553 2.9055-0.26121 3.5746-0.59577 0.86977-0.43489 3.0173-1.1723 4.1704-0.59577 1.1915 0.59577 1.7873 2.3831 2.9788 2.9789 0.86765 0.43382 5.5929 3.4407 5.9577 4.1704 0.35492 0.70984 0.65352 2.4408 1.1915 2.9788 1.8803 1.8803 5.6778 0.9116 6.5535 1.7873 0.551 0.55101 1.3268 3.8452 1.7873 4.7662 0.35746 0.71492 1.4298 1.0724 1.7873 1.7873 0.88845 1.7769 2.1137 3.6315 2.9789 5.362 0.41052 0.82103 1.3972 0.80147 1.7873 1.1915 1.6775 0.037 0.15171 1.3432 0.59577 1.7873 0.14042 0.14043 0.45534-0.14042 0.59577 0 0.54394 0.54394-0.27139 2.1117 0.59577 2.9789 0.14043 0.14043 0.50696-0.17762 0.59577 0 0.0239 0.0477 0.16453 2.8143 0 2.9789-0.5933 0.5933-3.0737 2.2274-3.5746 2.9789-0.22031 0.33047 0.17763 0.83629 0 1.1915-0.0581 0.11615-1.0623 0.4665-1.1915 0.59577-0.71709 0.71709-0.78128 8.009-0.59577 8.9366 0.29574 1.4787 1.4687 1.4687 2.3831 2.3831 0.88814 0.88815 1.3909 3.1782 2.3831 4.1704 2.6187 2.6187 5.3619 1.4977 5.3619 5.9577 0 1.4851-0.35039 2.9087-1.1915 4.1704-0.98796 1.482-0.1369 0.0684-1.1915 0.59577-0.39718 0.19859-0.1745 1.0511-0.59577 1.1916-2.4306 0.8102-8.4958 0.29544-10.724-0.59577-2.0059-0.80237-4.3405-2.6627-6.5535-2.9789-2.641-0.37728-10.903-2.2936-13.107-1.1915-0.39718 0.19859-0.19859 0.99295-0.59577 1.1915-0.69139 0.34569-5.093 1.4798-5.9577 1.1915-0.52852-0.17617-3.3296-1.5423-3.5746-1.7873-0.314-0.314-0.22629-0.94523-0.59577-1.1916-0.95821-0.6388-2.3762 0.0139-3.5746-2.3831-0.60862-1.2172 0.33717-2.4477-1.7873-2.9789-1.0363-0.25907-11.86 0.11161-11.915 0-0.17762-0.35525 0.0963-0.80622 0-1.1915-0.33258-1.3304-1.5305-1.2736-1.7873-1.7873-0.17763-0.35525 0.1256-0.81474 0-1.1915-0.35554-1.0666-3.2399-3.2644-4.1704-3.5746-0.3768-0.1256-0.86107 0.22032-1.1915 0-0.36949-0.24632-0.22629-0.94522-0.59578-1.1915-2.8316-1.8877 0.50085 2.2882-2.3831-0.59577-1.447-1.447 0.17716-0.87485-1.1915-1.7873-0.52253-0.34835-1.3433-0.15171-1.7873-0.59577-0.314-0.314-0.28177-0.87754-0.59577-1.1915-0.10978-0.10978-1.6775-0.48599-1.7873-0.59577-0.52445-0.52445-0.34001-2.3395-0.59578-2.9789-0.34167-0.85418-2.5041-4.4078-0.59577-5.3619 3.7923-1.8962 9.0852 0.20859 13.107-0.59577 3.3767-0.67534 6.5984-1.5119 9.5323-2.9789 0.17762-0.0888 0.39718 0 0.59577 0 0.59577-0.19859 1.2648-0.24742 1.7873-0.59577 1.5009-1.0006-0.11306-5.7316 0.59578-7.1493 1.3814-2.7628 8.9361-2.9775 9.5323-4.7662 0.80827-2.4248-2.3594-3.5509-3.5746-4.7662-1.2327-1.2327 1.8837 0.0482-0.59577-1.1916-0.5617-0.28085-1.2849-0.21897-1.7873-0.59577-1.4513-1.0885 0.17987-1.1016-1.1915-1.7873-0.82178-0.41089-0.5329 0.72151-1.1915-0.59577-0.26511-0.53022 1.8431-1.6793 2.3831-1.7873 0.97367-0.19473 2.0369 0.314 2.9789 0 2.5494-0.84981 3.7142-1.0519 5.9577 1.1915z"/>
  </g>
 </g>
</svg>
